  0
SECTION
  2
HEADER
  9
$EXTMIN
 10
-20244.3
 20
2512.37
  9
$EXTMAX
 10
64221.0
 20
60682.4
  9
$DIMASZ
 40
4.0
  9
$DIMTXT
 40
5.0
  0
ENDSEC
  0
SECTION
  2
TABLES
  0
TABLE
  2
LTYPE
 70
  126
  0
LTYPE
  2
CONTINUOUS
 70
   64
  3
Solid line
 72
   65
 73
    0
 40
0.0
  0
LTYPE
  2
HIDDEN
 70
   64
  3
_ _ _ _ _ _ _ _ _ _ _ _ _ _ _ _ _ _ _ _ _ _ _
 72
   65
 73
    2
 40
0.375
 49
0.25
 49
-0.125
  0
LTYPE
  2
CENTER
 70
   64
  3
____ _ ____ _ ____ _ ____ _ ____ _ ____ _ ____
 72
   65
 73
    4
 40
2.0
 49
1.25
 49
-0.25
 49
0.25
 49
-0.25
  0
LTYPE
  2
DASHED
 70
   64
  3
__ __ __ __ __ __ __ __ __ __ __ __ __ __ __
 72
   65
 73
    2
 40
1.5
 49
1.25
 49
-0.25
  0
LTYPE
  2
LT-7
 70
   64
  3
METlt
 72
   65
 73
    6
 40
2.04
 49
1.2
 49
-0.24
 49
0.06
 49
-0.24
 49
0.06
 49
-0.24
  0
LTYPE
  2
LT-8
 70
   64
  3
METlt
 72
   65
 73
    4
 40
4.86
 49
3.6
 49
-0.6
 49
0.06
 49
-0.6
  0
LTYPE
  2
LT-9
 70
   64
  3
METlt
 72
   65
 73
    2
 40
0.72
 49
0.6
 49
-0.12
  0
LTYPE
  2
LT-10
 70
   64
  3
METlt
 72
   65
 73
    6
 40
9.66
 49
3.6
 49
-0.6
 49
3.6
 49
-0.6
 49
0.06
 49
-1.2
  0
LTYPE
  2
LT-11
 70
   64
  3
METlt
 72
   65
 73
    4
 40
1.74
 49
1.2
 49
-0.24
 49
0.06
 49
-0.24
  0
LTYPE
  2
LT-12
 70
   64
  3
METlt
 72
   65
 73
    2
 40
0.3
 49
0.06
 49
-0.24
  0
LTYPE
  2
LT-13
 70
   64
  3
METlt
 72
   65
 73
    2
 40
1.68
 49
1.2
 49
-0.48
  0
ENDTAB
  0
TABLE
  2
LAYER
 70
    8
  0
LAYER
  2
lay-0
 70
    0
 62
    7
  6
CONTINUOUS
  0
LAYER
  2
lay-1
 70
    0
 62
    7
  6
CONTINUOUS
  0
LAYER
  2
NEU_UG_Mauern
 70
    0
 62
    7
  6
CONTINUOUS
  0
LAYER
  2
NEU_UG_Einbauten
 70
    0
 62
    7
  6
CONTINUOUS
  0
LAYER
  2
NEU_EG_Mauern
 70
    0
 62
    7
  6
CONTINUOUS
  0
LAYER
  2
NEU_EG_Einbauten
 70
    0
 62
    7
  6
CONTINUOUS
  0
LAYER
  2
NEU_1OG_Mauern
 70
    0
 62
    7
  6
CONTINUOUS
  0
LAYER
  2
NEU_1OG_Einbauten
 70
    0
 62
    7
  6
CONTINUOUS
  0
ENDTAB
  0
TABLE
  2
STYLE
 70
  256
  0
STYLE
  2
STANDARD
 70
   64
 40
0.0
 41
1.0
 50
0.0
 71
    0
 42
20.0
  3
TXT
  4

  0
ENDTAB
  0
ENDSEC
  0
SECTION
  2
BLOCKS
  0
BLOCK
  8
lay-0
  2
Haus_abgerissen
 70
    0
 10
0.0
 20
0.0
  0
LINE
  8
lay-1
 62
    0
 10
-176.777
 20
-176.777
 11
176.777
 21
176.777
  0
LINE
  8
lay-1
 62
    0
 10
-250.0
 20
3.63798e-012
 11
250.0
 21
3.63798e-012
  0
LINE
  8
lay-1
 62
    0
 10
-176.777
 20
176.777
 11
176.777
 21
-176.777
  0
LINE
  8
lay-1
 62
    0
 10
3.63798e-012
 20
-250.0
 11
3.63798e-012
 21
250.0
  0
ENDBLK
  8
lay-0
  0
BLOCK
  8
lay-0
  2
Zeichnung_ohne_Ausmass
 70
    0
 10
0.0
 20
0.0
  0
CIRCLE
  8
lay-1
 62
    0
 10
-7.27596e-012
 20
0.0
 40
300.0
  0
LINE
  8
Kat1865_Gebaeude
 62
    0
 10
-105.0
 20
175.001
 11
105.0
 21
175.001
  0
LINE
  8
Kat1865_Gebaeude
 62
    0
 10
105.0
 20
175.001
 11
-105.0
 21
-174.999
  0
LINE
  8
Kat1865_Gebaeude
 62
    0
 10
-105.0
 20
-174.999
 11
105.0
 21
-174.999
  0
ENDBLK
  8
lay-0
  0
BLOCK
  8
lay-0
  2
keine_Angaben
 70
    0
 10
0.0
 20
0.0
  0
LINE
  8
lay-0
 62
    0
 10
-261.109
 20
150.751
 11
261.109
 21
150.751
  0
LINE
  8
lay-0
 62
    0
 10
-261.109
 20
150.751
 11
-3.63798e-012
 21
-301.503
  0
LINE
  8
lay-0
 62
    0
 10
261.109
 20
150.751
 11
-3.63798e-012
 21
-301.503
  0
CIRCLE
  8
lay-0
 62
    0
 10
-3.63798e-012
 20
-1.09139e-011
 40
150.751
  0
ENDBLK
  8
lay-0
  0
BLOCK
  8
lay-0
  2
unvollst_Unterlagen
 70
    0
 10
0.0
 20
0.0
  0
LINE
  8
lay-1
 62
    0
 10
-237.764
 20
77.2542
 11
-56.1285
 21
77.2542
  0
LINE
  8
lay-1
 62
    0
 10
56.1285
 20
77.2542
 11
237.764
 21
77.2542
  0
LINE
  8
lay-1
 62
    0
 10
-146.946
 20
-202.254
 11
-90.8178
 21
-29.5085
  0
LINE
  8
lay-1
 62
    0
 10
-56.1285
 20
77.2542
 11
-1.09139e-011
 21
250.0
  0
LINE
  8
lay-1
 62
    0
 10
-237.764
 20
77.2542
 11
-90.8178
 21
-29.5085
  0
LINE
  8
lay-1
 62
    0
 10
-2.54659e-011
 20
-95.4915
 11
146.946
 21
-202.254
  0
LINE
  8
lay-1
 62
    0
 10
237.764
 20
77.2542
 11
90.8178
 21
-29.5085
  0
LINE
  8
lay-1
 62
    0
 10
-2.54659e-011
 20
-95.4915
 11
-146.946
 21
-202.254
  0
LINE
  8
lay-1
 62
    0
 10
-1.09139e-011
 20
250.0
 11
56.1285
 21
77.2542
  0
LINE
  8
lay-1
 62
    0
 10
90.8178
 20
-29.5085
 11
146.946
 21
-202.254
  0
ENDBLK
  8
lay-0
  0
BLOCK
  8
lay-0
  2
Antritt_NEU
 70
    0
 10
0.0
 20
0.0
  0
LINE
  8
lay-1
 62
    1
 10
40.0
 20
100.0
 11
40.0
 21
-100.0
  0
LINE
  8
lay-1
 62
    1
 10
-40.0
 20
100.0
 11
-40.0
 21
-100.0
  0
ENDBLK
  8
lay-0
  0
BLOCK
  8
lay-0
  2
Antritt_alt
 70
    0
 10
0.0
 20
0.0
  0
LINE
  8
lay-1
 62
    6
 10
40.0
 20
100.0
 11
40.0
 21
-100.0
  0
LINE
  8
lay-1
 62
    6
 10
-40.0
 20
100.0
 11
-40.0
 21
-100.0
  0
ENDBLK
  8
lay-0
  0
ENDSEC
  0
SECTION
  2
ENTITIES
  0
POINT
  8
lay-0
 62
    8
 10
40342.7
 20
30547.4
  0
POINT
  8
lay-0
 62
    8
 10
7936.15
 20
30547.4
  0
TEXT
  8
lay-0
 39
0.2
 62
    0
 10
7988.78
 20
58343.0
 40
500.0
  1
Rennweg  19 / 5885 / 291, 659   "Kleiner Mörser", "Kleiner Feuermörser"
 41
0.0115
  7
Arial
  0
LINE
  8
NEU_EG_Mauern
 39
0.2
 62
    0
 10
12338.0
 20
26130.9
 11
11938.3
 21
26115.1
  0
TEXT
  8
lay-0
 39
0.2
 62
    0
 10
7987.01
 20
57034.2
 40
500.0
  1
Zürich 1996
 41
0.0115
  7
Arial
  0
POINT
  8
lay-0
 62
    0
 10
38956.3
 20
59297.4
  0
POINT
  8
lay-0
 62
    8
 10
32741.0
 20
30547.4
  0
POINT
  8
lay-0
 62
    8
 10
40342.7
 20
23297.4
  0
POINT
  8
lay-0
 62
    8
 10
32741.0
 20
13880.0
  0
POINT
  8
lay-0
 62
    8
 10
40342.7
 20
39964.8
  0
POINT
  8
lay-0
 62
    8
 10
40342.7
 20
37797.4
  0
POINT
  8
lay-0
 62
    8
 10
40342.7
 20
54464.8
  0
POINT
  8
lay-0
 62
    8
 10
32741.0
 20
47214.8
  0
POINT
  8
lay-0
 62
    8
 10
40342.7
 20
6629.99
  0
POINT
  8
lay-0
 62
    8
 10
15537.8
 20
13880.0
  0
POINT
  8
lay-0
 62
    8
 10
15537.8
 20
47214.8
  0
POINT
  8
lay-0
 62
    8
 10
24139.4
 20
31547.4
  0
POINT
  8
lay-0
 62
    8
 10
40342.7
 20
21130.0
  0
POINT
  8
lay-0
 62
    8
 10
24139.4
 20
43006.1
  0
POINT
  8
lay-0
 62
    8
 10
24139.4
 20
18088.7
  0
POINT
  8
lay-0
 62
    8
 10
40342.7
 20
31547.4
  0
POINT
  8
lay-0
 62
    8
 10
7936.15
 20
31547.4
  0
POINT
  8
lay-0
 62
    8
 10
24139.4
 20
29547.4
  0
POINT
  8
lay-0
 62
    8
 10
7988.78
 20
58343.0
  0
POINT
  8
lay-0
 62
    8
 10
40342.7
 20
19088.7
  0
POINT
  8
lay-0
 62
    8
 10
23139.4
 20
6629.99
  0
POINT
  8
lay-0
 62
    8
 10
40342.7
 20
29547.4
  0
POINT
  8
lay-0
 62
    8
 10
7936.15
 20
29547.4
  0
LINE
  8
NEU_EG_Mauern
 39
0.2
 62
    0
 10
11932.4
 20
26265.0
 11
11632.6
 21
26253.1
  0
POINT
  8
lay-0
 62
    8
 10
25139.4
 20
31547.4
  0
POINT
  8
lay-0
 62
    8
 10
23139.4
 20
31547.4
  0
POINT
  8
lay-0
 62
    8
 10
25139.4
 20
6629.99
  0
POINT
  8
lay-0
 62
    8
 10
24139.4
 20
47214.8
  0
POINT
  8
lay-0
 62
    8
 10
24139.4
 20
13880.0
  0
POINT
  8
lay-0
 62
    8
 10
23139.4
 20
54464.8
  0
POINT
  8
lay-0
 62
    8
 10
25139.4
 20
54464.8
  0
POINT
  8
lay-0
 62
    0
 10
40987.9
 20
3897.37
  0
POINT
  8
lay-0
 62
    0
 10
2988.78
 20
31597.4
  0
LINE
  8
lay-0
 39
0.1
 62
    0
 10
7936.15
 20
56397.3
 11
40646.6
 21
56397.3
  0
POINT
  8
lay-0
 62
    8
 10
25139.4
 20
29547.4
  0
TEXT
  8
lay-0
 39
0.1
 62
    0
 10
37012.2
 20
5519.19
 40
500.0
  1
1.OG 1974
 41
0.0115
  7
Arial
  0
LINE
  8
lay-0
 39
0.1
 62
    0
 10
38277.0
 20
58344.9
 11
39902.6
 21
57547.5
  0
TEXT
  8
lay-0
 39
0.1
 62
    0
 10
36645.3
 20
55088.6
 40
330.0
  1
gezeich.: MA, RS
 41
0.0115
  7
Arial
 72
    2
 11
40463.2
 21
55088.6
  0
POINT
  8
lay-0
 62
    8
 10
23139.4
 20
29547.4
  0
POINT
  8
lay-0
 62
    8
 10
40342.7
 20
42006.1
  0
POINT
  8
lay-0
 62
    0
 10
5988.78
 20
3897.37
  0
POINT
  8
lay-0
 62
    8
 10
15537.8
 20
43006.1
  0
LINE
  8
lay-0
 39
0.1
 62
    0
 10
39094.2
 20
57944.0
 11
38695.5
 21
57131.2
  0
LINE
  8
lay-0
 39
0.1
 62
    0
 10
39902.6
 20
57547.5
 11
39488.5
 21
58759.1
  0
ARC
  8
lay-0
 39
0.1
 62
    0
 10
39089.8
 20
57946.2
 40
905.411
 50
244.183
 51
604.183
  0
POINT
  8
lay-0
 62
    8
 10
32741.0
 20
43006.1
  0
LINE
  8
lay-0
 39
0.1
 62
    0
 10
38277.0
 20
58344.9
 11
39488.5
 21
58759.1
  0
POINT
  8
lay-0
 62
    8
 10
15537.8
 20
30547.4
  0
POINT
  8
lay-0
 62
    8
 10
15537.8
 20
18088.7
  0
POINT
  8
lay-0
 62
    8
 10
7936.15
 20
6629.99
  0
POINT
  8
lay-0
 62
    8
 10
7936.15
 20
21130.0
  0
TEXT
  8
lay-0
 39
0.1
 62
    0
 10
38680.3
 20
55713.1
 40
330.0
  1
M 1/200
 41
0.0115
  7
Arial
 72
    2
 11
40463.2
 21
55713.1
  0
POINT
  8
lay-0
 62
    8
 10
32741.0
 20
18088.7
  0
POINT
  8
lay-0
 62
    8
 10
7936.15
 20
39964.8
  0
POINT
  8
lay-0
 62
    8
 10
40342.7
 20
44006.1
  0
POINT
  8
lay-0
 62
    8
 10
7936.15
 20
54464.8
  0
POINT
  8
lay-0
 62
    8
 10
7936.15
 20
23297.4
  0
LINE
  8
NEU_EG_Mauern
 39
0.2
 62
    0
 10
17936.7
 20
29939.9
 11
17952.8
 21
31617.9
  0
POINT
  8
lay-0
 62
    8
 10
7936.15
 20
37797.4
  0
POINT
  8
lay-0
 62
    8
 10
24139.4
 20
30547.4
  0
LINE
  8
NEU_EG_Mauern
 39
0.2
 62
    0
 10
14768.0
 20
30818.5
 11
17944.7
 21
30779.6
  0
LINE
  8
NEU_1OG_Mauern
 39
0.2
 62
    0
 10
18835.8
 20
11074.9
 11
18685.8
 21
11073.4
  0
LINE
  8
NEU_1OG_Mauern
 39
0.2
 62
    0
 10
18833.8
 20
11274.0
 11
18683.8
 21
11272.5
  0
LINE
  8
NEU_1OG_Mauern
 39
0.2
 62
    0
 10
21813.7
 20
14227.0
 11
21759.5
 21
13140.3
  0
LINE
  8
NEU_1OG_Mauern
 39
0.2
 62
    0
 10
18849.8
 20
9683.6
 11
18699.8
 21
9682.1
  0
LINE
  8
NEU_1OG_Mauern
 39
0.2
 62
    0
 10
18847.8
 20
9882.64
 11
18697.8
 21
9881.14
  0
LINE
  8
NEU_1OG_Mauern
 39
0.2
 62
    0
 10
18821.9
 20
12466.3
 11
18671.9
 21
12464.8
  0
LINE
  8
NEU_EG_Einbauten
 39
0.1
 62
    0
 10
17272.5
 20
29537.4
 11
17287.9
 21
30787.6
  0
LINE
  8
NEU_EG_Mauern
 39
0.2
 62
    0
 10
17936.7
 20
29939.9
 11
17931.6
 21
29529.4
  0
LINE
  8
NEU_EG_Mauern
 39
0.2
 62
    0
 10
19340.0
 20
31689.2
 11
19343.3
 21
31955.2
  0
LINE
  8
NEU_EG_Mauern
 39
0.2
 62
    0
 10
20389.3
 20
31676.3
 11
20392.6
 21
31942.3
  0
LINE
  8
NEU_EG_Mauern
 39
0.2
 62
    0
 10
20586.0
 20
31296.4
 11
20590.7
 21
31673.8
  0
LINE
  8
NEU_EG_Mauern
 39
0.2
 62
    0
 10
18111.6
 20
31970.4
 11
18081.6
 21
29527.6
  0
LINE
  8
NEU_EG_Mauern
 39
0.2
 62
    0
 10
18108.4
 20
31704.3
 11
20590.7
 21
31673.8
  0
LINE
  8
NEU_EG_Mauern
 39
0.2
 62
    0
 10
20586.0
 20
31296.4
 11
21594.8
 21
31284.0
  0
LINE
  8
NEU_EG_Mauern
 39
0.2
 62
    0
 10
18081.6
 20
29527.6
 11
19801.6
 21
29506.4
  0
LINE
  8
NEU_EG_Mauern
 39
0.2
 62
    0
 10
21594.8
 20
31284.0
 11
21505.2
 21
29485.5
  0
LINE
  8
NEU_EG_Mauern
 39
0.2
 62
    0
 10
13617.1
 20
29582.5
 11
17931.6
 21
29529.4
  0
LINE
  8
NEU_EG_Mauern
 39
0.2
 62
    0
 10
19140.0
 20
31691.7
 11
19143.3
 21
31957.7
  0
LINE
  8
NEU_EG_Mauern
 39
0.2
 62
    0
 10
17943.9
 20
31972.4
 11
17952.8
 21
31617.9
  0
LINE
  8
NEU_1OG_Mauern
 39
0.2
 62
    0
 10
25841.3
 20
7744.93
 11
21629.9
 21
8061.64
  0
LINE
  8
NEU_1OG_Mauern
 39
0.2
 62
    0
 10
25800.3
 20
7052.02
 11
25841.3
 21
7744.93
  0
LINE
  8
NEU_EG_Mauern
 39
0.2
 62
    0
 10
31043.7
 20
23485.3
 11
27424.4
 21
23646.3
  0
LINE
  8
NEU_EG_Mauern
 39
0.2
 62
    0
 10
28320.0
 20
24877.5
 11
28879.5
 21
24852.6
  0
LINE
  8
NEU_EG_Mauern
 39
0.2
 62
    0
 10
25782.8
 20
23719.4
 11
25823.8
 21
24412.3
  0
LINE
  8
NEU_1OG_Mauern
 39
0.2
 62
    0
 10
18668.0
 20
12853.2
 11
18715.8
 21
8085.31
  0
LINE
  8
NEU_EG_Mauern
 39
0.2
 62
    0
 10
19801.6
 20
29506.4
 11
19791.8
 21
28706.8
  0
LINE
  8
NEU_EG_Mauern
 39
0.2
 62
    0
 10
20970.5
 20
29492.1
 11
20960.7
 21
28692.5
  0
LINE
  8
NEU_EG_Mauern
 39
0.2
 62
    0
 10
20960.7
 20
28692.5
 11
22114.6
 21
28678.4
  0
LINE
  8
NEU_EG_Mauern
 39
0.2
 62
    0
 10
17943.9
 20
31972.4
 11
21626.9
 21
31927.1
  0
LINE
  8
NEU_EG_Mauern
 39
0.2
 62
    0
 10
20970.5
 20
29492.1
 11
21505.2
 21
29485.5
  0
LINE
  8
NEU_EG_Mauern
 39
0.2
 62
    0
 10
11877.5
 20
27648.8
 11
11577.8
 21
27636.9
  0
LINE
  8
NEU_EG_Mauern
 39
0.2
 62
    0
 10
12271.3
 20
27814.5
 11
11871.6
 21
27798.7
  0
LINE
  8
NEU_EG_Mauern
 39
0.2
 62
    0
 10
11871.6
 20
27798.7
 11
11938.3
 21
26115.1
  0
LINE
  8
NEU_EG_Mauern
 39
0.2
 62
    0
 10
21722.1
 20
33837.4
 11
21769.1
 21
34772.3
  0
LINE
  8
NEU_EG_Mauern
 39
0.2
 62
    0
 10
21769.1
 20
34772.3
 11
21195.4
 21
34750.7
  0
LINE
  8
NEU_UG_Einbauten
 39
0.1
 62
    0
 10
19529.9
 20
46177.4
 11
19545.2
 21
47427.6
  0
LINE
  8
NEU_UG_Einbauten
 39
0.1
 62
    0
 10
19809.9
 20
46173.9
 11
19825.2
 21
47424.2
  0
LINE
  8
NEU_UG_Einbauten
 39
0.1
 62
    0
 10
20089.8
 20
46170.5
 11
20105.1
 21
47420.7
  0
LINE
  8
NEU_UG_Mauern
 39
0.2
 62
    0
 10
20365.0
 20
45775.0
 11
20369.8
 21
46167.0
  0
LINE
  8
NEU_UG_Mauern
 39
0.2
 62
    0
 10
20369.8
 20
46167.0
 11
16783.3
 21
46211.1
  0
LINE
  8
NEU_UG_Einbauten
 39
0.1
 62
    0
 10
20369.8
 20
46166.0
 11
21521.8
 21
46152.9
  0
LINE
  8
NEU_UG_Einbauten
 39
0.1
 62
    0
 10
19545.2
 20
47427.6
 11
18689.8
 21
46187.7
  0
LINE
  8
NEU_UG_Einbauten
 39
0.1
 62
    0
 10
19249.9
 20
46180.8
 11
19260.1
 21
47014.4
  0
LINE
  8
NEU_UG_Einbauten
 39
0.1
 62
    0
 10
18969.9
 20
46184.2
 11
18975.0
 21
46601.2
  0
LINE
  8
NEU_UG_Einbauten
 39
0.1
 62
    0
 10
20369.8
 20
46167.0
 11
20385.1
 21
47417.3
  0
LINE
  8
NEU_1OG_Mauern
 39
0.2
 62
    0
 10
28821.2
 20
10055.7
 11
25864.1
 21
10187.3
  0
LINE
  8
NEU_EG_Mauern
 39
0.2
 62
    0
 10
27424.4
 20
23646.3
 11
28320.0
 21
24877.5
  0
LINE
  8
NEU_UG_Mauern
 39
0.2
 62
    0
 10
12434.0
 20
46052.8
 11
13778.5
 21
46038.7
  0
LINE
  8
NEU_UG_Mauern
  6
LT-9
 39
0.2
 62
    0
 10
13628.5
 20
46040.3
 11
13634.6
 21
46249.8
  0
LINE
  8
NEU_UG_Mauern
  6
LT-9
 39
0.2
 62
    0
 10
12584.0
 20
46051.2
 11
12590.0
 21
46258.1
  0
LINE
  8
NEU_UG_Mauern
 39
0.2
 62
    0
 10
13768.8
 20
45703.5
 11
13778.5
 21
46038.7
  0
LINE
  8
NEU_UG_Mauern
 39
0.2
 62
    0
 10
12425.0
 20
45742.5
 11
12434.0
 21
46052.8
  0
LINE
  8
NEU_UG_Mauern
 39
0.2
 62
    0
 10
20360.0
 20
45367.5
 11
20365.0
 21
45775.0
  0
LINE
  8
NEU_UG_Einbauten
 39
0.1
 62
    0
 10
21512.0
 20
45354.4
 11
20360.0
 21
45367.5
  0
LINE
  8
NEU_UG_Mauern
 39
0.2
 62
    0
 10
24518.8
 20
42285.1
 11
22600.7
 21
42370.5
  0
LINE
  8
NEU_UG_Einbauten
 39
0.1
 62
    0
 10
23728.5
 20
43421.4
 11
23679.6
 21
42322.5
  0
LINE
  8
NEU_UG_Mauern
 39
0.2
 62
    0
 10
31211.2
 20
44351.7
 11
31061.2
 21
44351.7
  0
LINE
  8
NEU_UG_Mauern
 39
0.2
 62
    0
 10
31211.2
 20
43491.7
 11
31061.2
 21
43491.7
  0
LINE
  8
NEU_UG_Mauern
 39
0.2
 62
    0
 10
33444.0
 20
43191.7
 11
33444.0
 21
43041.7
  0
LINE
  8
NEU_UG_Mauern
 39
0.2
 62
    0
 10
31211.2
 20
44651.7
 11
31211.2
 21
43191.7
  0
LINE
  8
NEU_UG_Mauern
 39
0.2
 62
    0
 10
34144.0
 20
43191.7
 11
34144.0
 21
43041.7
  0
LINE
  8
NEU_UG_Mauern
 39
0.2
 62
    0
 10
20248.5
 20
48508.5
 11
19898.5
 21
48512.8
  0
LINE
  8
NEU_UG_Mauern
 39
0.2
 62
    0
 10
19885.2
 20
47423.4
 11
19898.5
 21
48512.8
  0
LINE
  8
NEU_UG_Mauern
 39
0.2
 62
    0
 10
36111.2
 20
45271.7
 11
36111.2
 21
40750.6
  0
LINE
  8
NEU_UG_Mauern
 39
0.2
 62
    0
 10
28873.0
 20
40982.6
 11
36111.2
 21
40750.6
  0
LINE
  8
NEU_UG_Mauern
 39
0.2
 62
    0
 10
20387.0
 20
47567.3
 11
20411.8
 21
49595.5
  0
LINE
  8
NEU_UG_Mauern
 39
0.2
 62
    0
 10
21512.0
 20
45353.3
 11
21521.8
 21
46153.3
  0
LINE
  8
NEU_UG_Mauern
 39
0.2
 62
    0
 10
34844.0
 20
45271.7
 11
34844.0
 21
43041.7
  0
LINE
  8
NEU_1OG_Mauern
 39
0.2
 62
    0
 10
17950.2
 20
12862.0
 11
17973.7
 21
15304.9
  0
LINE
  8
NEU_1OG_Mauern
 39
0.2
 62
    0
 10
17973.7
 20
15304.9
 11
21644.4
 21
15259.8
  0
LINE
  8
NEU_1OG_Mauern
 39
0.2
 62
    0
 10
21829.9
 20
14551.9
 11
22255.3
 21
14471.3
  0
LINE
  8
NEU_1OG_Mauern
 39
0.2
 62
    0
 10
25737.8
 20
8053.57
 11
21642.5
 21
8361.53
  0
LINE
  8
NEU_1OG_Mauern
 39
0.2
 62
    0
 10
25737.8
 20
8053.57
 11
25864.1
 21
10187.3
  0
LINE
  8
NEU_1OG_Mauern
 39
0.2
 62
    0
 10
25950.2
 20
7045.35
 11
26001.5
 21
7911.31
  0
LINE
  8
NEU_1OG_Mauern
 39
0.2
 62
    0
 10
25916.0
 20
8007.2
 11
26001.5
 21
7911.31
  0
LINE
  8
NEU_1OG_Mauern
 39
0.2
 62
    0
 10
25916.0
 20
8007.2
 11
26033.0
 21
9984.09
  0
LINE
  8
NEU_UG_Mauern
 39
0.2
 62
    0
 10
18303.7
 20
51637.9
 11
18202.6
 21
49622.6
  0
LINE
  8
NEU_EG_Mauern
 39
0.2
 62
    0
 10
31043.7
 20
25033.0
 11
31043.7
 21
24536.3
  0
LINE
  8
NEU_EG_Mauern
 39
0.2
 62
    0
 10
11500.0
 20
29599.1
 11
11689.4
 21
24819.6
  0
LINE
  8
NEU_EG_Mauern
  6
LT-7
 39
0.1
 62
    0
 10
25823.8
 20
24412.3
 11
36793.7
 21
24060.8
  0
LINE
  8
NEU_EG_Mauern
 39
0.2
 62
    0
 10
31193.7
 20
27984.3
 11
31193.7
 21
26524.3
  0
LINE
  8
NEU_EG_Mauern
 39
0.2
 62
    0
 10
32893.7
 20
27984.3
 11
31193.7
 21
27984.3
  0
LINE
  8
NEU_EG_Einbauten
 39
0.1
 62
    0
 10
28949.4
 20
24174.0
 11
28749.6
 21
24182.8
  0
LINE
  8
NEU_EG_Einbauten
 39
0.1
 62
    0
 10
28952.9
 20
24253.9
 11
28753.1
 21
24262.8
  0
LINE
  8
NEU_EG_Einbauten
 39
0.1
 62
    0
 10
31013.7
 20
31544.3
 11
31013.7
 21
30264.3
  0
LINE
  8
NEU_EG_Mauern
  6
LT-7
 39
0.1
 62
    0
 10
24978.9
 20
23755.2
 11
24829.1
 21
23761.8
  0
LINE
  8
NEU_EG_Mauern
 39
0.2
 62
    0
 10
33597.0
 20
35667.2
 11
22435.3
 21
35084.9
  0
LINE
  8
NEU_EG_Einbauten
 39
0.1
 62
    0
 10
30713.7
 20
31117.7
 11
30713.7
 21
30264.3
  0
LINE
  8
NEU_EG_Einbauten
 39
0.1
 62
    0
 10
30413.7
 20
30691.0
 11
30413.7
 21
30264.3
  0
LINE
  8
NEU_EG_Einbauten
 39
0.1
 62
    0
 10
31913.7
 20
31544.3
 11
31013.7
 21
31544.3
  0
LINE
  8
NEU_EG_Einbauten
 39
0.1
 62
    0
 10
31013.7
 20
31544.3
 11
30113.7
 21
30264.3
  0
LINE
  8
NEU_EG_Mauern
 39
0.2
 62
    0
 10
32675.4
 20
23412.7
 11
36828.7
 21
23297.4
  0
LINE
  8
NEU_EG_Mauern
 39
0.2
 62
    0
 10
36793.7
 20
36013.3
 11
36793.7
 21
36363.8
  0
LINE
  8
NEU_EG_Mauern
 39
0.2
 62
    0
 10
32675.4
 20
23412.7
 11
31193.7
 21
23478.6
  0
LINE
  8
NEU_UG_Mauern
 39
0.2
 62
    0
 10
34694.0
 20
45271.7
 11
34694.0
 21
44801.7
  0
LINE
  8
NEU_EG_Mauern
  6
LT-7
 39
0.1
 62
    0
 10
27424.4
 20
23646.3
 11
25782.8
 21
23719.4
  0
LINE
  8
NEU_EG_Mauern
  6
LT-7
 39
0.1
 62
    0
 10
31043.7
 20
23485.3
 11
31193.7
 21
23478.6
  0
LINE
  8
NEU_EG_Mauern
 39
0.2
 62
    0
 10
32893.7
 20
26374.3
 11
32893.7
 21
24996.4
  0
LINE
  8
NEU_UG_Mauern
 39
0.2
 62
    0
 10
33444.0
 20
43041.7
 11
31061.2
 21
43041.7
  0
LINE
  8
NEU_1OG_Mauern
 39
0.2
 62
    0
 10
21892.8
 20
15813.2
 11
22324.4
 21
15851.0
  0
LINE
  8
NEU_1OG_Mauern
 39
0.2
 62
    0
 10
21892.8
 20
15813.2
 11
21829.9
 21
14551.9
  0
LINE
  8
NEU_1OG_Mauern
 39
0.2
 62
    0
 10
21813.7
 20
14227.0
 11
22245.0
 21
14264.9
  0
LINE
  8
NEU_1OG_Mauern
 39
0.2
 62
    0
 10
21998.2
 20
17927.7
 11
21935.5
 21
16671.4
  0
LINE
  8
NEU_1OG_Mauern
 39
0.2
 62
    0
 10
21759.5
 20
13140.3
 11
22184.7
 21
13059.8
  0
LINE
  8
NEU_1OG_Mauern
 39
0.2
 62
    0
 10
21998.2
 20
17927.7
 11
22430.2
 21
17965.6
  0
LINE
  8
NEU_1OG_Mauern
 39
0.2
 62
    0
 10
21935.5
 20
16671.4
 11
22361.4
 21
16590.8
  0
LINE
  8
NEU_1OG_Mauern
 39
0.2
 62
    0
 10
21993.2
 20
17827.9
 11
21772.9
 21
17838.8
  0
LINE
  8
NEU_1OG_Mauern
 39
0.2
 62
    0
 10
18861.7
 20
8491.3
 11
18711.7
 21
8489.8
  0
LINE
  8
NEU_1OG_Mauern
 39
0.2
 62
    0
 10
21940.5
 20
16771.3
 11
21720.3
 21
16782.3
  0
LINE
  8
NEU_EG_Einbauten
 39
0.1
 62
    0
 10
17552.5
 20
29534.0
 11
17567.8
 21
30784.2
  0
LINE
  8
NEU_EG_Einbauten
 39
0.1
 62
    0
 10
17832.5
 20
29530.6
 11
17847.8
 21
30780.8
  0
LINE
  8
NEU_EG_Einbauten
 39
0.1
 62
    0
 10
14752.7
 20
29568.3
 11
14768.0
 21
30818.5
  0
LINE
  8
NEU_EG_Einbauten
 39
0.1
 62
    0
 10
15312.7
 20
29561.4
 11
15328.0
 21
30811.6
  0
LINE
  8
NEU_EG_Einbauten
 39
0.1
 62
    0
 10
15032.7
 20
29564.8
 11
15048.0
 21
30815.0
  0
LINE
  8
NEU_UG_Einbauten
 39
0.1
 62
    0
 10
24288.0
 20
43396.5
 11
24239.1
 21
42297.6
  0
LINE
  8
NEU_UG_Mauern
 39
0.2
 62
    0
 10
20535.1
 20
47415.5
 11
17743.1
 21
47449.6
  0
LINE
  8
NEU_UG_Mauern
 39
0.2
 62
    0
 10
34844.0
 20
43041.7
 11
34144.0
 21
43041.7
  0
LINE
  8
NEU_UG_Mauern
 39
0.2
 62
    0
 10
32911.2
 20
43191.7
 11
32911.2
 21
44651.7
  0
LINE
  8
NEU_UG_Mauern
 39
0.2
 62
    0
 10
22506.4
 20
43625.9
 11
22445.5
 21
42257.8
  0
LINE
  8
NEU_UG_Mauern
 39
0.2
 62
    0
 10
22506.4
 20
43625.9
 11
22656.2
 21
43619.3
  0
LINE
  8
NEU_EG_Einbauten
 39
0.1
 62
    0
 10
15592.7
 20
29558.0
 11
15608.0
 21
30808.2
  0
LINE
  8
NEU_EG_Einbauten
 39
0.1
 62
    0
 10
16432.6
 20
29547.7
 11
16447.9
 21
30797.9
  0
LINE
  8
NEU_EG_Einbauten
 39
0.1
 62
    0
 10
16152.6
 20
29551.1
 11
16167.9
 21
30801.3
  0
LINE
  8
NEU_UG_Mauern
 39
0.2
 62
    0
 10
21212.9
 20
51418.1
 11
21203.9
 21
51657.5
  0
LINE
  8
NEU_EG_Einbauten
 39
0.1
 62
    0
 10
15872.7
 20
29554.6
 11
15888.0
 21
30804.8
  0
LINE
  8
NEU_EG_Einbauten
 39
0.1
 62
    0
 10
16712.6
 20
29544.3
 11
16727.9
 21
30794.5
  0
LINE
  8
NEU_UG_Einbauten
 39
0.1
 62
    0
 10
32761.2
 20
44501.7
 11
31211.2
 21
44501.7
  0
LINE
  8
NEU_UG_Mauern
 39
0.2
 62
    0
 10
28977.9
 20
43338.0
 11
28873.0
 21
40982.6
  0
LINE
  8
NEU_UG_Mauern
 39
0.2
 62
    0
 10
27869.5
 20
45275.9
 11
27881.7
 21
46275.8
  0
LINE
  8
NEU_UG_Einbauten
 39
0.1
 62
    0
 10
32761.2
 20
43341.7
 11
32761.2
 21
44501.7
  0
LINE
  8
NEU_UG_Einbauten
 39
0.1
 62
    0
 10
25369.8
 20
42514.2
 11
25351.3
 21
42098.0
  0
LINE
  8
NEU_1OG_Mauern
 39
0.2
 62
    0
 10
30556.4
 20
15176.9
 11
31931.2
 21
15176.9
  0
LINE
  8
NEU_1OG_Mauern
 39
0.2
 62
    0
 10
36846.2
 20
6629.99
 11
32692.9
 21
6745.29
  0
LINE
  8
NEU_1OG_Einbauten
 39
0.1
 62
    0
 10
29531.2
 20
13596.9
 11
29531.2
 21
14876.9
  0
LINE
  8
NEU_1OG_Mauern
 39
0.2
 62
    0
 10
32909.4
 20
11316.9
 11
32909.4
 21
9856.94
  0
LINE
  8
NEU_1OG_Einbauten
 39
0.1
 62
    0
 10
29656.4
 20
16416.9
 11
29656.4
 21
15176.9
  0
LINE
  8
NEU_1OG_Mauern
 39
0.2
 62
    0
 10
30416.2
 20
11316.9
 11
30416.2
 21
11466.9
  0
LINE
  8
NEU_1OG_Mauern
 39
0.2
 62
    0
 10
31211.2
 20
9856.94
 11
32909.4
 21
9856.94
  0
LINE
  8
NEU_UG_Mauern
 39
0.2
 62
    0
 10
28531.5
 20
41956.4
 11
28576.4
 21
43355.8
  0
LINE
  8
NEU_1OG_Mauern
 39
0.2
 62
    0
 10
28971.2
 20
9853.34
 11
26033.0
 21
9984.09
  0
LINE
  8
NEU_1OG_Einbauten
 39
0.1
 62
    0
 10
27572.6
 20
9915.58
 11
27517.0
 21
8666.81
  0
LINE
  8
NEU_UG_Einbauten
 39
0.1
 62
    0
 10
24008.2
 20
43409.0
 11
23959.3
 21
42310.0
  0
LINE
  8
NEU_UG_Einbauten
 39
0.1
 62
    0
 10
23448.8
 20
43433.9
 11
23399.9
 21
42334.9
  0
LINE
  8
NEU_1OG_Mauern
 39
0.2
 62
    0
 10
21392.1
 20
18283.8
 11
21380.8
 21
18483.5
  0
LINE
  8
NEU_1OG_Einbauten
 39
0.1
 62
    0
 10
31331.2
 20
13596.9
 11
31331.2
 21
14876.9
  0
LINE
  8
NEU_1OG_Mauern
 39
0.2
 62
    0
 10
36111.2
 20
19280.3
 11
36111.2
 21
11579.6
  0
LINE
  8
NEU_1OG_Einbauten
 39
0.1
 62
    0
 10
29956.4
 20
16416.9
 11
29956.4
 21
15176.9
  0
LINE
  8
NEU_1OG_Einbauten
 39
0.1
 62
    0
 10
30256.4
 20
16416.9
 11
30256.4
 21
15176.9
  0
LINE
  8
NEU_1OG_Einbauten
 39
0.1
 62
    0
 10
31631.2
 20
13596.9
 11
31631.2
 21
14876.9
  0
LINE
  8
NEU_EG_Mauern
  6
LT-7
 39
0.1
 62
    0
 10
15892.8
 20
31602.1
 11
15892.8
 21
31602.1
  0
LINE
  8
NEU_1OG_Einbauten
 39
0.1
 62
    0
 10
28770.6
 20
7595.38
 11
28970.4
 21
7586.49
  0
LINE
  8
NEU_UG_Mauern
 39
0.2
 62
    0
 10
36111.2
 20
52415.2
 11
36111.2
 21
48001.7
  0
LINE
  8
NEU_UG_Mauern
  6
LT-9
 39
0.2
 62
    0
 10
16633.2
 20
46213.0
 11
13634.6
 21
46249.8
  0
LINE
  8
NEU_1OG_Mauern
 39
0.2
 62
    0
 10
29616.2
 20
11316.9
 11
29616.2
 21
11466.9
  0
LINE
  8
NEU_1OG_Mauern
 39
0.2
 62
    0
 10
29616.2
 20
11316.9
 11
28971.2
 21
11316.9
  0
LINE
  8
NEU_1OG_Mauern
 39
0.2
 62
    0
 10
28971.2
 20
11316.9
 11
28971.2
 21
9853.34
  0
LINE
  8
NEU_1OG_Mauern
 39
0.2
 62
    0
 10
28821.2
 20
13596.9
 11
28821.2
 21
10055.7
  0
LINE
  8
NEU_EG_Mauern
 39
0.2
 62
    0
 10
25823.8
 20
24412.3
 11
25010.9
 21
24473.4
  0
LINE
  8
NEU_1OG_Mauern
 39
0.2
 62
    0
 10
31931.2
 20
14876.9
 11
31931.2
 21
15176.9
  0
LINE
  8
NEU_1OG_Mauern
 39
0.2
 62
    0
 10
31931.2
 20
13266.9
 11
31931.2
 21
14876.9
  0
LINE
  8
NEU_1OG_Mauern
 39
0.2
 62
    0
 10
27162.2
 20
6991.41
 11
25950.2
 21
7045.35
  0
LINE
  8
NEU_EG_Mauern
 39
0.2
 62
    0
 10
28898.1
 20
25272.0
 11
25054.0
 21
25443.0
  0
LINE
  8
NEU_EG_Einbauten
 39
0.1
 62
    0
 10
16992.6
 20
29540.9
 11
17007.9
 21
30791.0
  0
LINE
  8
NEU_1OG_Mauern
 39
0.2
 62
    0
 10
21591.8
 20
18295.1
 11
21392.1
 21
18283.8
  0
LINE
  8
NEU_1OG_Einbauten
 39
0.1
 62
    0
 10
28767.1
 20
7515.46
 11
28966.9
 21
7506.57
  0
LINE
  8
NEU_1OG_Einbauten
 39
0.1
 62
    0
 10
28057.8
 20
8222.57
 11
28001.3
 21
6954.07
  0
LINE
  8
NEU_1OG_Einbauten
 39
0.1
 62
    0
 10
27778.1
 20
8235.02
 11
27721.6
 21
6966.52
  0
LINE
  8
NEU_1OG_Einbauten
 39
0.1
 62
    0
 10
27498.3
 20
8247.47
 11
27441.9
 21
6978.96
  0
LINE
  8
NEU_1OG_Einbauten
 39
0.1
 62
    0
 10
28411.8
 20
9878.23
 11
28356.2
 21
8629.47
  0
LINE
  8
NEU_1OG_Einbauten
 39
0.1
 62
    0
 10
28691.5
 20
9865.79
 11
28635.9
 21
8617.02
  0
LINE
  8
NEU_1OG_Mauern
 39
0.2
 62
    0
 10
21580.5
 20
18494.8
 11
21591.8
 21
18295.1
  0
LINE
  8
NEU_1OG_Einbauten
 39
0.1
 62
    0
 10
27292.9
 20
9928.03
 11
27162.2
 21
6991.41
  0
LINE
  8
NEU_1OG_Einbauten
 39
0.1
 62
    0
 10
28560.8
 20
6929.17
 11
28617.2
 21
8197.68
  0
LINE
  8
NEU_1OG_Einbauten
 39
0.1
 62
    0
 10
28337.5
 20
8210.12
 11
28281.1
 21
6941.62
  0
LINE
  8
NEU_1OG_Einbauten
 39
0.1
 62
    0
 10
28132.0
 20
9890.68
 11
28076.5
 21
8641.92
  0
LINE
  8
NEU_1OG_Einbauten
 39
0.1
 62
    0
 10
27852.3
 20
9903.13
 11
27796.7
 21
8654.37
  0
LINE
  8
NEU_1OG_Einbauten
 39
0.1
 62
    0
 10
28915.6
 20
8604.57
 11
27237.3
 21
8679.26
  0
LINE
  8
NEU_1OG_Mauern
 39
0.2
 62
    0
 10
28821.2
 20
13596.9
 11
29531.2
 21
13596.9
  0
LINE
  8
NEU_1OG_Mauern
 39
0.2
 62
    0
 10
21380.8
 20
18483.5
 11
21580.5
 21
18494.8
  0
LINE
  8
NEU_1OG_Einbauten
 39
0.1
 62
    0
 10
30556.4
 20
15176.9
 11
30556.4
 21
16416.9
  0
LINE
  8
NEU_1OG_Einbauten
 39
0.1
 62
    0
 10
29356.4
 20
15176.9
 11
30556.4
 21
15176.9
  0
LINE
  8
NEU_1OG_Mauern
 39
0.2
 62
    0
 10
31211.2
 20
9706.94
 11
31211.2
 21
6811.23
  0
LINE
  8
NEU_1OG_Mauern
  6
LT-7
 39
0.1
 62
    0
 10
25950.2
 20
7045.35
 11
25800.3
 21
7052.02
  0
LINE
  8
NEU_1OG_Einbauten
 39
0.1
 62
    0
 10
28897.0
 20
8185.23
 11
27218.6
 21
8259.92
  0
LINE
  8
NEU_UG_Mauern
 39
0.2
 62
    0
 10
23455.5
 20
43583.7
 11
27887.6
 21
43386.5
  0
LINE
  8
NEU_UG_Mauern
 39
0.2
 62
    0
 10
22656.2
 20
43619.3
 11
22600.7
 21
42370.5
  0
LINE
  8
NEU_UG_Mauern
 39
0.2
 62
    0
 10
28531.5
 20
41956.4
 11
24512.1
 21
42135.3
  0
LINE
  8
NEU_UG_Mauern
 39
0.2
 62
    0
 10
12373.4
 20
42346.6
 11
12238.6
 21
45747.9
  0
LINE
  8
NEU_1OG_Mauern
 39
0.2
 62
    0
 10
26630.2
 20
13596.9
 11
26630.2
 21
13266.9
  0
LINE
  8
NEU_1OG_Mauern
 39
0.2
 62
    0
 10
26630.2
 20
13266.9
 11
26300.2
 21
13266.9
  0
LINE
  8
NEU_1OG_Mauern
 39
0.2
 62
    0
 10
26300.2
 20
13596.9
 11
26630.2
 21
13596.9
  0
LINE
  8
NEU_UG_Mauern
  6
LT-7
 39
0.1
 62
    0
 10
21167.5
 20
40603.6
 11
21167.5
 21
40603.6
  0
LINE
  8
NEU_UG_Mauern
  6
LT-9
 39
0.2
 62
    0
 10
36811.2
 20
48551.7
 11
36111.2
 21
48551.7
  0
LINE
  8
NEU_UG_Mauern
 39
0.2
 62
    0
 10
34694.0
 20
44801.7
 11
31211.2
 21
44801.7
  0
LINE
  8
NEU_UG_Mauern
 39
0.2
 62
    0
 10
31061.2
 20
43041.7
 11
31061.2
 21
43491.7
  0
LINE
  8
NEU_1OG_Mauern
 39
0.2
 62
    0
 10
26300.2
 20
13266.9
 11
26300.2
 21
13596.9
  0
LINE
  8
NEU_EG_Mauern
 39
0.2
 62
    0
 10
25782.8
 20
23719.4
 11
24978.9
 21
23755.2
  0
LINE
  8
NEU_UG_Mauern
 39
0.2
 62
    0
 10
24518.8
 20
42285.1
 11
24512.1
 21
42135.3
  0
LINE
  8
NEU_UG_Mauern
 39
0.2
 62
    0
 10
29769.6
 20
45271.7
 11
29781.8
 21
46271.7
  0
LINE
  8
NEU_UG_Mauern
 39
0.2
 62
    0
 10
36111.2
 20
48001.7
 11
35728.6
 21
48001.7
  0
LINE
  8
NEU_UG_Mauern
  6
LT-7
 39
0.1
 62
    0
 10
21827.3
 20
52245.3
 11
36811.2
 21
53031.2
  0
LINE
  8
NEU_1OG_Mauern
 39
0.2
 62
    0
 10
21786.2
 20
18105.0
 11
21522.7
 21
12818.1
  0
LINE
  8
NEU_1OG_Mauern
 39
0.2
 62
    0
 10
21212.9
 20
18083.3
 11
21786.2
 21
18105.0
  0
LINE
  8
NEU_UG_Mauern
  6
LT-9
 39
0.2
 62
    0
 10
36811.2
 20
44143.3
 11
36111.2
 21
44143.3
  0
LINE
  8
NEU_1OG_Mauern
 39
0.2
 62
    0
 10
22460.4
 20
18568.1
 11
22157.2
 21
12510.7
  0
LINE
  8
NEU_UG_Mauern
  6
LT-9
 39
0.2
 62
    0
 10
36811.2
 20
43378.8
 11
36111.2
 21
43378.8
  0
LINE
  8
NEU_UG_Mauern
  6
LT-9
 39
0.2
 62
    0
 10
36511.0
 20
43378.8
 11
36511.0
 21
44143.3
  0
LINE
  8
NEU_UG_Mauern
  6
LT-9
 39
0.2
 62
    0
 10
36511.0
 20
48551.7
 11
36511.0
 21
49351.7
  0
LINE
  8
NEU_UG_Mauern
 39
0.2
 62
    0
 10
18860.2
 20
45555.8
 11
12238.6
 21
45747.9
  0
LINE
  8
NEU_EG_Mauern
  6
LT-7
 39
0.1
 62
    0
 10
36828.7
 20
23297.4
 11
36793.7
 21
24060.8
  0
LINE
  8
NEU_UG_Mauern
  6
LT-9
 39
0.2
 62
    0
 10
36811.2
 20
53031.2
 11
36811.2
 21
40728.2
  0
LINE
  8
NEU_UG_Mauern
  6
LT-7
 39
0.1
 62
    0
 10
25800.3
 20
40386.4
 11
25841.3
 21
41079.7
  0
LINE
  8
NEU_UG_Mauern
  6
LT-7
 39
0.1
 62
    0
 10
32692.9
 20
40080.1
 11
25800.3
 21
40386.8
  0
LINE
  8
NEU_UG_Mauern
 39
0.2
 62
    0
 10
22442.2
 20
51539.6
 11
22409.0
 21
50876.7
  0
LINE
  8
NEU_UG_Mauern
 39
0.2
 62
    0
 10
22273.9
 20
48177.9
 11
21905.7
 21
48196.3
  0
LINE
  8
NEU_UG_Mauern
 39
0.2
 62
    0
 10
22040.8
 20
50895.1
 11
21905.7
 21
48196.3
  0
LINE
  8
NEU_1OG_Einbauten
 39
0.1
 62
    0
 10
28840.5
 20
6916.72
 11
28971.2
 21
9853.34
  0
LINE
  8
NEU_1OG_Einbauten
 39
0.1
 62
    0
 10
29831.2
 20
13596.9
 11
29831.2
 21
14876.9
  0
LINE
  8
NEU_UG_Mauern
 39
0.2
 62
    0
 10
22273.9
 20
48177.9
 11
22182.2
 21
46345.2
  0
LINE
  8
NEU_UG_Mauern
 39
0.2
 62
    0
 10
22409.0
 20
50876.7
 11
22040.8
 21
50895.1
  0
LINE
  8
NEU_EG_Mauern
 39
0.2
 62
    0
 10
25010.9
 20
24473.4
 11
25004.2
 21
24322.4
  0
LINE
  8
NEU_UG_Mauern
  6
LT-9
 39
0.2
 62
    0
 10
36811.2
 20
49351.7
 11
36111.2
 21
49351.7
  0
LINE
  8
NEU_EG_Mauern
 39
0.2
 62
    0
 10
24985.6
 20
23905.0
 11
24978.9
 21
23755.2
  0
LINE
  8
NEU_EG_Mauern
 39
0.2
 62
    0
 10
24861.3
 20
24484.7
 11
24854.3
 21
24329.0
  0
LINE
  8
NEU_UG_Mauern
 39
0.2
 62
    0
 10
34694.0
 20
43191.7
 11
34144.0
 21
43191.7
  0
LINE
  8
NEU_UG_Mauern
 39
0.2
 62
    0
 10
36111.2
 20
46601.7
 11
36111.2
 21
46271.7
  0
LINE
  8
NEU_1OG_Mauern
 39
0.2
 62
    0
 10
21190.2
 20
18686.4
 11
21212.9
 21
18083.3
  0
LINE
  8
NEU_1OG_Einbauten
 39
0.1
 62
    0
 10
30131.2
 20
13596.9
 11
30131.2
 21
14876.9
  0
LINE
  8
NEU_1OG_Einbauten
 39
0.1
 62
    0
 10
30431.2
 20
13596.9
 11
30431.2
 21
14876.9
  0
LINE
  8
NEU_1OG_Einbauten
 39
0.1
 62
    0
 10
30731.2
 20
13596.9
 11
30731.2
 21
14876.9
  0
LINE
  8
NEU_1OG_Einbauten
 39
0.1
 62
    0
 10
29531.2
 20
13596.9
 11
29531.2
 21
14876.9
  0
LINE
  8
NEU_UG_Mauern
 39
0.2
 62
    0
 10
21921.2
 20
48501.0
 11
21640.7
 21
48515.1
  0
LINE
  8
NEU_1OG_Mauern
 39
0.2
 62
    0
 10
32261.2
 20
13596.9
 11
29531.2
 21
13596.9
  0
LINE
  8
NEU_1OG_Einbauten
 39
0.1
 62
    0
 10
31031.2
 20
13596.9
 11
31031.2
 21
14876.9
  0
LINE
  8
NEU_1OG_Mauern
 39
0.2
 62
    0
 10
31931.2
 20
13266.9
 11
32261.2
 21
13266.9
  0
LINE
  8
NEU_1OG_Mauern
 39
0.2
 62
    0
 10
32261.2
 20
13596.9
 11
32261.2
 21
13266.9
  0
LINE
  8
NEU_1OG_Mauern
 39
0.2
 62
    0
 10
22460.4
 20
18568.1
 11
36811.2
 21
19316.8
  0
LINE
  8
NEU_1OG_Mauern
 39
0.2
 62
    0
 10
36811.2
 20
11579.6
 11
36111.2
 21
11579.6
  0
LINE
  8
NEU_1OG_Mauern
 39
0.2
 62
    0
 10
36811.2
 20
7393.44
 11
36811.2
 21
7393.44
  0
LINE
  8
NEU_UG_Mauern
  6
LT-7
 39
0.1
 62
    0
 10
36846.2
 20
39964.8
 11
32692.9
 21
40080.1
  0
LINE
  8
NEU_UG_Mauern
  6
LT-7
 39
0.1
 62
    0
 10
21817.0
 20
52044.8
 11
21827.3
 21
52245.3
  0
LINE
  8
NEU_1OG_Mauern
 39
0.2
 62
    0
 10
36811.2
 20
11331.4
 11
36111.2
 21
11331.4
  0
LINE
  8
NEU_1OG_Mauern
 39
0.2
 62
    0
 10
36811.2
 20
7393.44
 11
36811.2
 21
7393.44
  0
LINE
  8
NEU_1OG_Mauern
 39
0.2
 62
    0
 10
36811.2
 20
16720.0
 11
36511.2
 21
16720.0
  0
LINE
  8
NEU_1OG_Mauern
 39
0.2
 62
    0
 10
36811.2
 20
16469.5
 11
36511.2
 21
16469.5
  0
LINE
  8
NEU_1OG_Mauern
 39
0.2
 62
    0
 10
31211.2
 20
9706.94
 11
33065.1
 21
9706.94
  0
LINE
  8
NEU_1OG_Einbauten
 39
0.1
 62
    0
 10
31211.2
 20
10006.9
 11
32761.2
 21
11166.9
  0
LINE
  8
NEU_1OG_Einbauten
 39
0.1
 62
    0
 10
31211.2
 20
11166.9
 11
32761.2
 21
10006.9
  0
LINE
  8
NEU_1OG_Mauern
 39
0.2
 62
    0
 10
31061.2
 20
10151.8
 11
31061.2
 21
6817.9
  0
LINE
  8
NEU_1OG_Mauern
 39
0.2
 62
    0
 10
36511.2
 20
9050.67
 11
36511.2
 21
8798.02
  0
LINE
  8
NEU_1OG_Mauern
 39
0.2
 62
    0
 10
31061.2
 20
11316.9
 11
31061.2
 21
11018.0
  0
LINE
  8
NEU_1OG_Mauern
 39
0.2
 62
    0
 10
31061.2
 20
11316.9
 11
30416.2
 21
11316.9
  0
LINE
  8
NEU_1OG_Mauern
 39
0.2
 62
    0
 10
31211.2
 20
11018.0
 11
31061.2
 21
11018.0
  0
LINE
  8
NEU_1OG_Mauern
 39
0.2
 62
    0
 10
31211.2
 20
10151.8
 11
31061.2
 21
10151.8
  0
LINE
  8
NEU_1OG_Einbauten
 39
0.1
 62
    0
 10
28057.8
 20
8222.57
 11
27162.2
 21
6991.4
  0
LINE
  8
NEU_1OG_Einbauten
 39
0.1
 62
    0
 10
29531.2
 20
14876.9
 11
29531.2
 21
13596.9
  0
LINE
  8
NEU_1OG_Mauern
 39
0.2
 62
    0
 10
33065.1
 20
11466.9
 11
33065.1
 21
9706.94
  0
LINE
  8
NEU_1OG_Mauern
 39
0.2
 62
    0
 10
36811.2
 20
8798.02
 11
36511.2
 21
8798.02
  0
LINE
  8
NEU_1OG_Mauern
 39
0.2
 62
    0
 10
36811.2
 20
14118.1
 11
36511.2
 21
14118.1
  0
LINE
  8
NEU_1OG_Mauern
 39
0.2
 62
    0
 10
13634.6
 20
12915.1
 11
11517.5
 21
12931.7
  0
LINE
  8
NEU_1OG_Mauern
 39
0.2
 62
    0
 10
21522.7
 20
12818.1
 11
13634.6
 21
12915.1
  0
LINE
  8
NEU_1OG_Einbauten
 39
0.1
 62
    0
 10
31211.2
 20
10006.9
 11
32761.2
 21
10006.9
  0
LINE
  8
NEU_1OG_Mauern
 39
0.2
 62
    0
 10
21834.9
 20
14651.8
 11
21614.6
 21
14662.7
  0
LINE
  8
NEU_1OG_Mauern
  6
LT-7
 39
0.1
 62
    0
 10
32692.9
 20
6745.29
 11
32692.9
 21
6745.29
  0
LINE
  8
NEU_1OG_Mauern
 39
0.2
 62
    0
 10
21887.8
 20
15713.3
 11
21667.5
 21
15724.3
  0
LINE
  8
NEU_1OG_Einbauten
 39
0.1
 62
    0
 10
29456.4
 20
15836.9
 11
29256.4
 21
15836.9
  0
LINE
  8
NEU_1OG_Mauern
 39
0.2
 62
    0
 10
29616.2
 20
11466.9
 11
28821.2
 21
11466.9
  0
LINE
  8
NEU_1OG_Mauern
 39
0.2
 62
    0
 10
36811.2
 20
9050.67
 11
36511.2
 21
9050.67
  0
LINE
  8
NEU_1OG_Mauern
 39
0.2
 62
    0
 10
36511.2
 20
16720.0
 11
36511.2
 21
16469.5
  0
LINE
  8
NEU_UG_Mauern
 39
0.2
 62
    0
 10
21997.8
 20
50035.2
 11
21717.3
 21
50049.2
  0
LINE
  8
NEU_1OG_Einbauten
 39
0.1
 62
    0
 10
32761.2
 20
11166.9
 11
32761.2
 21
10006.9
  0
LINE
  8
NEU_1OG_Mauern
  6
LT-7
 39
0.1
 62
    0
 10
32692.9
 20
6745.29
 11
32692.9
 21
6745.29
  0
LINE
  8
NEU_1OG_Einbauten
 39
0.1
 62
    0
 10
32761.2
 20
11166.9
 11
31211.2
 21
11166.9
  0
LINE
  8
NEU_1OG_Mauern
 39
0.2
 62
    0
 10
33065.1
 20
11466.9
 11
30416.2
 21
11466.9
  0
LINE
  8
NEU_1OG_Mauern
 39
0.2
 62
    0
 10
36811.2
 20
13868.9
 11
36511.2
 21
13868.9
  0
LINE
  8
NEU_1OG_Mauern
 39
0.2
 62
    0
 10
36112.2
 20
11580.2
 11
36112.2
 21
11328.2
  0
LINE
  8
NEU_1OG_Mauern
 39
0.2
 62
    0
 10
36811.2
 20
19696.4
 11
36811.2
 21
7393.44
  0
LINE
  8
NEU_UG_Mauern
 39
0.2
 62
    0
 10
17797.2
 20
48528.4
 11
17743.1
 21
47449.6
  0
LINE
  8
NEU_1OG_Mauern
 39
0.2
 62
    0
 10
36511.2
 20
14118.1
 11
36511.2
 21
13868.9
  0
LINE
  8
NEU_1OG_Mauern
 39
0.2
 62
    0
 10
32909.4
 20
11316.9
 11
31211.2
 21
11316.9
  0
LINE
  8
NEU_1OG_Mauern
 39
0.2
 62
    0
 10
22157.2
 20
12510.7
 11
18821.0
 21
12551.6
  0
LINE
  8
NEU_UG_Mauern
 39
0.2
 62
    0
 10
17797.2
 20
48528.4
 11
16900.1
 21
48539.3
  0
LINE
  8
NEU_1OG_Einbauten
 39
0.1
 62
    0
 10
29531.2
 20
14876.9
 11
29356.4
 21
14876.9
  0
LINE
  8
NEU_1OG_Einbauten
 39
0.1
 62
    0
 10
29356.4
 20
16416.9
 11
29356.4
 21
15176.9
  0
LINE
  8
NEU_1OG_Einbauten
 39
0.1
 62
    0
 10
29456.4
 20
15756.9
 11
29256.4
 21
15756.9
  0
LINE
  8
NEU_UG_Einbauten
 39
0.1
 62
    0
 10
24847.4
 20
43371.6
 11
24791.8
 21
42122.8
  0
LINE
  8
NEU_UG_Mauern
 39
0.2
 62
    0
 10
24693.0
 20
51683.8
 11
22442.2
 21
51539.6
  0
LINE
  8
NEU_1OG_Mauern
 39
0.2
 62
    0
 10
31211.2
 20
11316.9
 11
31211.2
 21
9856.94
  0
LINE
  8
NEU_1OG_Mauern
  6
LT-7
 39
0.1
 62
    0
 10
21190.2
 20
18686.4
 11
21817.0
 21
18710.0
  0
LINE
  8
NEU_EG_Mauern
 39
0.2
 62
    0
 10
24835.8
 20
23911.7
 11
24829.1
 21
23761.8
  0
LINE
  8
NEU_1OG_Mauern
  6
LT-7
 39
0.1
 62
    0
 10
21817.0
 20
18710.0
 11
21827.3
 21
18910.5
  0
LINE
  8
NEU_UG_Mauern
  6
LT-7
 39
0.1
 62
    0
 10
11706.9
 20
41486.9
 11
11517.5
 21
46266.5
  0
LINE
  8
NEU_1OG_Mauern
 39
0.2
 62
    0
 10
18853.5
 20
8083.99
 11
11706.9
 21
8152.18
  0
LINE
  8
NEU_1OG_Mauern
  6
LT-7
 39
0.1
 62
    0
 10
21827.3
 20
18910.5
 11
36811.2
 21
19696.4
  0
LINE
  8
NEU_1OG_Mauern
 39
0.2
 62
    0
 10
32692.9
 20
6745.29
 11
27162.2
 21
6991.41
  0
LINE
  8
NEU_1OG_Mauern
 39
0.2
 62
    0
 10
21642.5
 20
8361.53
 11
18862.8
 21
8386.9
  0
LINE
  8
NEU_1OG_Mauern
 39
0.2
 62
    0
 10
18821.0
 20
12551.6
 11
18862.8
 21
8386.9
  0
LINE
  8
NEU_EG_Mauern
 39
0.2
 62
    0
 10
18107.4
 20
31621.8
 11
17952.8
 21
31617.9
  0
LINE
  8
NEU_1OG_Mauern
 39
0.2
 62
    0
 10
21629.9
 20
8061.64
 11
18853.5
 21
8083.99
  0
LINE
  8
NEU_EG_Mauern
 39
0.2
 62
    0
 10
18086.7
 20
29938.0
 11
17936.7
 21
29939.9
  0
LINE
  8
NEU_1OG_Mauern
 39
0.2
 62
    0
 10
11517.5
 20
12931.7
 11
11706.9
 21
8152.18
  0
LINE
  8
NEU_EG_Einbauten
 39
0.1
 62
    0
 10
28320.0
 20
24877.5
 11
28263.6
 21
23609.0
  0
LINE
  8
NEU_1OG_Einbauten
 39
0.1
 62
    0
 10
29356.4
 20
15176.9
 11
29356.4
 21
14876.9
  0
LINE
  8
NEU_EG_Mauern
 39
0.2
 62
    0
 10
21722.1
 20
33837.4
 11
21626.9
 21
31927.1
  0
LINE
  8
NEU_UG_Mauern
 39
0.2
 62
    0
 10
20260.0
 20
49450.7
 11
18195.2
 21
49476.0
  0
LINE
  8
NEU_UG_Mauern
 39
0.2
 62
    0
 10
20387.0
 20
47567.3
 11
20536.9
 21
47565.5
  0
LINE
  8
NEU_UG_Mauern
 39
0.2
 62
    0
 10
20535.1
 20
47415.5
 11
20536.9
 21
47565.5
  0
LINE
  8
NEU_UG_Mauern
 39
0.2
 62
    0
 10
19888.8
 20
47723.4
 11
18108.4
 21
47745.2
  0
LINE
  8
NEU_1OG_Einbauten
 39
0.1
 62
    0
 10
31931.2
 20
14876.9
 11
29531.2
 21
14876.9
  0
LINE
  8
NEU_UG_Mauern
 39
0.2
 62
    0
 10
20360.0
 20
45367.5
 11
18858.1
 21
45384.5
  0
LINE
  8
NEU_UG_Mauern
 39
0.2
 62
    0
 10
31931.2
 20
46601.7
 11
31931.2
 21
46931.7
  0
LINE
  8
NEU_UG_Mauern
  6
LT-9
 39
0.2
 62
    0
 10
36811.2
 20
40728.2
 11
36844.3
 21
40011.2
  0
LINE
  8
NEU_UG_Mauern
  6
LT-7
 39
0.1
 62
    0
 10
36844.1
 20
40011.3
 11
36846.2
 21
39964.8
  0
LINE
  8
NEU_UG_Mauern
 39
0.2
 62
    0
 10
18858.1
 20
45384.5
 11
18860.2
 21
45555.8
  0
LINE
  8
NEU_EG_Mauern
 39
0.2
 62
    0
 10
29598.7
 20
28584.3
 11
28803.7
 21
28584.3
  0
LINE
  8
NEU_EG_Mauern
 39
0.2
 62
    0
 10
13467.0
 20
29583.6
 11
13463.6
 21
29433.7
  0
LINE
  8
NEU_EG_Mauern
 39
0.2
 62
    0
 10
12364.4
 20
29442.3
 11
12366.2
 21
29592.3
  0
LINE
  8
NEU_EG_Mauern
 39
0.2
 62
    0
 10
12216.4
 20
29199.6
 11
16334.0
 21
29149.2
  0
LINE
  8
NEU_EG_Einbauten
 39
0.1
 62
    0
 10
31613.7
 20
31544.3
 11
31613.7
 21
30264.3
  0
LINE
  8
NEU_EG_Einbauten
 39
0.1
 62
    0
 10
31817.5
 20
30955.6
 11
32017.4
 21
30964.0
  0
LINE
  8
NEU_EG_Mauern
 39
0.2
 62
    0
 10
31193.7
 20
28584.3
 11
30398.7
 21
28584.3
  0
LINE
  8
NEU_EG_Mauern
 39
0.2
 62
    0
 10
18620.9
 20
28721.1
 11
19791.8
 21
28706.8
  0
LINE
  8
NEU_EG_Mauern
 39
0.2
 62
    0
 10
18620.9
 20
28721.1
 11
18632.8
 21
28921.0
  0
LINE
  8
NEU_EG_Mauern
 39
0.2
 62
    0
 10
32243.7
 20
29934.3
 11
31913.7
 21
29934.3
  0
LINE
  8
NEU_EG_Mauern
 39
0.2
 62
    0
 10
18632.8
 20
28921.0
 11
16331.6
 21
28949.2
  0
LINE
  8
NEU_EG_Mauern
 39
0.2
 62
    0
 10
11500.0
 20
29599.1
 11
13617.1
 21
29582.5
  0
LINE
  8
NEU_EG_Mauern
 39
0.2
 62
    0
 10
15522.2
 20
27566.5
 11
15503.2
 21
25484.8
  0
LINE
  8
NEU_EG_Mauern
 39
0.2
 62
    0
 10
15536.7
 20
29159.1
 11
15530.4
 21
28464.6
  0
LINE
  8
NEU_UG_Mauern
 39
0.2
 62
    0
 10
20411.8
 20
49595.5
 11
18202.6
 21
49622.6
  0
LINE
  8
NEU_UG_Mauern
 39
0.2
 62
    0
 10
27882.8
 20
43236.5
 11
27887.6
 21
43386.5
  0
LINE
  8
NEU_UG_Mauern
 39
0.2
 62
    0
 10
34694.0
 20
44651.7
 11
33061.2
 21
44651.7
  0
LINE
  8
NEU_UG_Mauern
 39
0.2
 62
    0
 10
21203.9
 20
51657.5
 11
19862.5
 21
51605.1
  0
LINE
  8
NEU_UG_Mauern
 39
0.2
 62
    0
 10
32911.2
 20
43191.7
 11
31211.2
 21
43191.7
  0
LINE
  8
NEU_UG_Mauern
 39
0.2
 62
    0
 10
31061.2
 20
44351.7
 11
31061.2
 21
45271.7
  0
LINE
  8
NEU_UG_Mauern
 39
0.2
 62
    0
 10
21441.7
 20
47554.4
 11
21592.6
 21
47552.5
  0
LINE
  8
NEU_EG_Mauern
 39
0.2
 62
    0
 10
28803.7
 20
30264.3
 11
28803.7
 21
26727.6
  0
LINE
  8
NEU_EG_Mauern
 39
0.2
 62
    0
 10
30538.9
 20
31844.3
 11
30538.9
 21
30869.0
  0
LINE
  8
NEU_EG_Mauern
 39
0.2
 62
    0
 10
30113.7
 20
30264.3
 11
28803.7
 21
30264.3
  0
LINE
  8
NEU_UG_Einbauten
 39
0.1
 62
    0
 10
24567.7
 20
43384.1
 11
24518.8
 21
42285.1
  0
LINE
  8
NEU_EG_Mauern
 39
0.2
 62
    0
 10
31043.7
 20
25033.0
 11
32893.7
 21
24996.4
  0
LINE
  8
NEU_EG_Mauern
 39
0.2
 62
    0
 10
21612.4
 20
24729.0
 11
18836.0
 21
24751.4
  0
LINE
  8
NEU_EG_Mauern
 39
0.2
 62
    0
 10
18836.0
 20
24751.4
 11
11689.4
 21
24819.6
  0
LINE
  8
NEU_UG_Einbauten
 39
0.1
 62
    0
 10
31211.2
 20
43341.7
 11
32761.2
 21
44501.7
  0
LINE
  8
NEU_EG_Mauern
 39
0.2
 62
    0
 10
24861.3
 20
24484.7
 11
21612.4
 21
24729.0
  0
LINE
  8
NEU_EG_Mauern
  6
LT-7
 39
0.1
 62
    0
 10
21809.8
 20
35577.9
 11
36793.7
 21
36363.8
  0
LINE
  8
NEU_EG_Mauern
  6
LT-7
 39
0.1
 62
    0
 10
11500.0
 20
29599.1
 11
11450.1
 21
35477.6
  0
LINE
  8
NEU_EG_Mauern
  6
LT-7
 39
0.1
 62
    0
 10
11450.1
 20
35477.6
 11
19830.8
 21
35301.2
  0
LINE
  8
NEU_UG_Mauern
 39
0.2
 62
    0
 10
24237.3
 20
45320.1
 11
24249.5
 21
46320.0
  0
LINE
  8
NEU_EG_Mauern
  6
LT-7
 39
0.1
 62
    0
 10
19830.8
 20
35301.2
 11
21309.5
 21
35358.9
  0
LINE
  8
NEU_UG_Einbauten
 39
0.1
 62
    0
 10
31211.2
 20
44501.7
 11
32761.2
 21
43341.7
  0
LINE
  8
NEU_UG_Einbauten
 39
0.1
 62
    0
 10
32761.2
 20
43341.7
 11
31211.2
 21
43341.7
  0
LINE
  8
NEU_UG_Mauern
 39
0.2
 62
    0
 10
31211.2
 20
44801.7
 11
31211.2
 21
45271.7
  0
LINE
  8
NEU_EG_Mauern
  6
LT-7
 39
0.1
 62
    0
 10
21799.5
 20
35377.4
 11
21809.8
 21
35577.9
  0
LINE
  8
NEU_UG_Mauern
 39
0.2
 62
    0
 10
36111.2
 20
52415.2
 11
24843.7
 21
51693.4
  0
LINE
  8
NEU_UG_Mauern
 39
0.2
 62
    0
 10
32261.2
 20
46601.7
 11
31931.2
 21
46601.7
  0
LINE
  8
NEU_UG_Mauern
 39
0.2
 62
    0
 10
32261.2
 20
46931.7
 11
32261.2
 21
46601.7
  0
LINE
  8
NEU_EG_Mauern
  6
LT-7
 39
0.1
 62
    0
 10
21309.5
 20
35358.9
 11
21799.5
 21
35377.4
  0
LINE
  8
NEU_EG_Mauern
 39
0.2
 62
    0
 10
24854.3
 20
24329.0
 11
25004.2
 21
24322.4
  0
LINE
  8
NEU_UG_Mauern
 39
0.2
 62
    0
 10
26630.2
 20
46601.7
 11
26300.2
 21
46601.7
  0
LINE
  8
NEU_UG_Mauern
 39
0.2
 62
    0
 10
26630.2
 20
46931.7
 11
26630.2
 21
46601.7
  0
LINE
  8
NEU_UG_Mauern
 39
0.2
 62
    0
 10
26300.2
 20
46931.7
 11
26630.2
 21
46931.7
  0
LINE
  8
NEU_UG_Mauern
 39
0.2
 62
    0
 10
26300.2
 20
46601.7
 11
26300.2
 21
46931.7
  0
LINE
  8
NEU_UG_Mauern
 39
0.2
 62
    0
 10
21585.1
 20
47402.6
 11
21434.2
 21
47404.5
  0
LINE
  8
NEU_EG_Mauern
 39
0.2
 62
    0
 10
24835.8
 20
23911.7
 11
24985.6
 21
23905.0
  0
LINE
  8
NEU_EG_Mauern
 39
0.2
 62
    0
 10
21195.4
 20
34750.7
 11
21172.7
 21
35353.6
  0
LINE
  8
NEU_UG_Mauern
 39
0.2
 62
    0
 10
24582.3
 20
46316.0
 11
24843.7
 21
51693.4
  0
LINE
  8
NEU_EG_Mauern
 39
0.2
 62
    0
 10
21374.6
 20
34951.2
 11
21363.3
 21
35150.8
  0
LINE
  8
NEU_UG_Einbauten
 39
0.1
 62
    0
 10
25631.0
 20
42085.5
 11
24847.4
 21
43371.6
  0
LINE
  8
NEU_EG_Mauern
 39
0.2
 62
    0
 10
21363.3
 20
35150.8
 11
21563.0
 21
35162.2
  0
LINE
  8
NEU_UG_Mauern
 39
0.2
 62
    0
 10
18892.2
 20
47435.6
 11
18895.9
 21
47735.6
  0
LINE
  8
NEU_UG_Mauern
 39
0.2
 62
    0
 10
36111.2
 20
46271.7
 11
29781.8
 21
46271.7
  0
LINE
  8
NEU_EG_Mauern
 39
0.2
 62
    0
 10
21574.3
 20
34962.5
 11
21563.0
 21
35162.2
  0
LINE
  8
NEU_EG_Mauern
 39
0.2
 62
    0
 10
21374.6
 20
34951.2
 11
21574.3
 21
34962.5
  0
LINE
  8
NEU_EG_Einbauten
 39
0.1
 62
    0
 10
28466.3
 20
26542.4
 11
28410.7
 21
25293.6
  0
LINE
  8
NEU_EG_Einbauten
 39
0.1
 62
    0
 10
27627.1
 20
26579.8
 11
27571.6
 21
25331.0
  0
LINE
  8
NEU_EG_Einbauten
 39
0.1
 62
    0
 10
27347.4
 20
26592.2
 11
27291.8
 21
25343.4
  0
LINE
  8
NEU_EG_Einbauten
 39
0.1
 62
    0
 10
27067.7
 20
26604.6
 11
27012.1
 21
25355.9
  0
LINE
  8
NEU_UG_Mauern
 39
0.2
 62
    0
 10
27881.7
 20
46275.8
 11
24582.3
 21
46316.0
  0
LINE
  8
NEU_EG_Einbauten
 39
0.1
 62
    0
 10
26788.0
 20
26617.1
 11
26732.4
 21
25368.3
  0
LINE
  8
NEU_EG_Einbauten
 39
0.1
 62
    0
 10
30538.9
 20
33084.3
 11
30538.9
 21
31844.3
  0
LINE
  8
NEU_EG_Mauern
 39
0.2
 62
    0
 10
12362.4
 20
25513.4
 11
12216.4
 21
29199.6
  0
LINE
  8
NEU_EG_Einbauten
 39
0.1
 62
    0
 10
26508.2
 20
26629.5
 11
26452.7
 21
25380.8
  0
LINE
  8
NEU_EG_Einbauten
 39
0.1
 62
    0
 10
25389.3
 20
26679.3
 11
25333.8
 21
25430.6
  0
LINE
  8
NEU_EG_Einbauten
 39
0.1
 62
    0
 10
26228.5
 20
26642.0
 11
26172.9
 21
25393.2
  0
LINE
  8
NEU_UG_Mauern
 39
0.2
 62
    0
 10
24432.2
 20
46317.8
 11
24693.0
 21
51683.8
  0
LINE
  8
NEU_UG_Mauern
 39
0.2
 62
    0
 10
24432.2
 20
46317.8
 11
24249.5
 21
46320.0
  0
LINE
  8
NEU_UG_Mauern
 39
0.2
 62
    0
 10
21786.8
 20
51439.7
 11
21212.9
 21
51418.1
  0
LINE
  8
NEU_EG_Einbauten
 39
0.1
 62
    0
 10
25948.8
 20
26654.4
 11
25893.2
 21
25405.7
  0
LINE
  8
NEU_EG_Mauern
 39
0.2
 62
    0
 10
12216.4
 20
29199.6
 11
12219.4
 21
29443.4
  0
LINE
  8
NEU_UG_Einbauten
 39
0.1
 62
    0
 10
25108.6
 20
42942.9
 11
25071.6
 21
42110.4
  0
LINE
  8
NEU_UG_Mauern
 39
0.2
 62
    0
 10
31931.2
 20
46931.7
 11
32261.2
 21
46931.7
  0
LINE
  8
NEU_EG_Mauern
 39
0.2
 62
    0
 10
12219.4
 20
29443.4
 11
13615.9
 21
29432.5
  0
LINE
  8
NEU_UG_Mauern
 39
0.2
 62
    0
 10
22770.1
 20
45338.0
 11
22782.3
 21
46337.9
  0
LINE
  8
NEU_UG_Mauern
 39
0.2
 62
    0
 10
31211.2
 20
44651.7
 11
31211.2
 21
43191.7
  0
LINE
  8
NEU_UG_Mauern
 39
0.2
 62
    0
 10
36111.2
 20
45271.7
 11
34844.0
 21
45271.7
  0
LINE
  8
NEU_UG_Mauern
 39
0.2
 62
    0
 10
33061.2
 20
43191.7
 11
33061.2
 21
44651.7
  0
LINE
  8
NEU_UG_Mauern
 39
0.2
 62
    0
 10
23455.5
 20
43583.7
 11
23448.8
 21
43433.9
  0
LINE
  8
NEU_UG_Mauern
 39
0.2
 62
    0
 10
28576.4
 20
43355.8
 11
28977.9
 21
43338.0
  0
LINE
  8
NEU_UG_Mauern
 39
0.2
 62
    0
 10
20248.5
 20
48508.5
 11
20260.0
 21
49450.7
  0
LINE
  8
NEU_EG_Mauern
 39
0.2
 62
    0
 10
13613.6
 20
29432.5
 11
13607.9
 21
29182.5
  0
LINE
  8
NEU_UG_Einbauten
 39
0.1
 62
    0
 10
23322.7
 20
42848.6
 11
23522.6
 21
42840.2
  0
LINE
  8
NEU_UG_Einbauten
 39
0.1
 62
    0
 10
23326.1
 20
42928.6
 11
23525.9
 21
42920.2
  0
LINE
  8
NEU_UG_Mauern
 39
0.2
 62
    0
 10
23448.8
 20
43433.9
 11
27882.8
 21
43236.5
  0
LINE
  8
NEU_EG_Mauern
 39
0.2
 62
    0
 10
16331.6
 20
28949.2
 11
16334.0
 21
29149.2
  0
LINE
  8
NEU_1OG_Mauern
 39
0.2
 62
    0
 10
21808.7
 20
14127.1
 11
21588.5
 21
14138.1
  0
LINE
  8
NEU_UG_Einbauten
 39
0.1
 62
    0
 10
21512.7
 20
45354.4
 11
21512.0
 21
45354.4
  0
LINE
  8
NEU_UG_Mauern
 39
0.2
 62
    0
 10
21786.8
 20
51439.7
 11
21592.6
 21
47552.5
  0
LINE
  8
NEU_UG_Mauern
 39
0.2
 62
    0
 10
32911.2
 20
44651.7
 11
31211.2
 21
44651.7
  0
LINE
  8
NEU_UG_Mauern
 39
0.2
 62
    0
 10
27869.5
 20
45275.9
 11
24237.3
 21
45320.1
  0
LINE
  8
NEU_UG_Mauern
 39
0.2
 62
    0
 10
22782.3
 20
46337.9
 11
22182.2
 21
46345.2
  0
LINE
  8
NEU_EG_Einbauten
 39
0.1
 62
    0
 10
25669.1
 20
26666.9
 11
25613.5
 21
25418.1
  0
LINE
  8
NEU_UG_Mauern
 39
0.2
 62
    0
 10
33444.0
 20
43191.7
 11
33061.2
 21
43191.7
  0
LINE
  8
NEU_UG_Mauern
 39
0.2
 62
    0
 10
22445.5
 20
42257.8
 11
12373.4
 21
42346.6
  0
LINE
  8
NEU_EG_Einbauten
 39
0.1
 62
    0
 10
28186.6
 20
26554.9
 11
28131.0
 21
25306.1
  0
LINE
  8
NEU_EG_Mauern
 39
0.2
 62
    0
 10
33587.7
 20
35845.2
 11
33633.7
 21
34963.0
  0
LINE
  8
NEU_EG_Einbauten
 39
0.1
 62
    0
 10
31913.7
 20
30879.6
 11
31913.7
 21
30264.3
  0
LINE
  8
NEU_EG_Einbauten
 39
0.1
 62
    0
 10
27906.8
 20
26567.3
 11
27851.3
 21
25318.5
  0
LINE
  8
NEU_EG_Mauern
 39
0.2
 62
    0
 10
25109.6
 20
26691.8
 11
25054.0
 21
25443.0
  0
LINE
  8
NEU_UG_Mauern
 39
0.2
 62
    0
 10
16900.1
 20
48539.3
 11
16783.1
 21
46206.9
  0
LINE
  8
NEU_EG_Einbauten
 39
0.1
 62
    0
 10
29338.9
 20
33084.3
 11
29338.9
 21
31844.3
  0
LINE
  8
NEU_EG_Mauern
 39
0.2
 62
    0
 10
30538.9
 20
35507.7
 11
30538.9
 21
33084.3
  0
LINE
  8
NEU_EG_Mauern
 39
0.2
 62
    0
 10
22435.3
 20
35084.9
 11
22114.6
 21
28678.4
  0
LINE
  8
NEU_UG_Einbauten
 39
0.1
 62
    0
 10
20275.0
 20
46762.5
 11
20475.0
 21
46761.5
  0
LINE
  8
NEU_UG_Einbauten
 39
0.1
 62
    0
 10
20365.0
 20
45775.0
 11
21517.0
 21
45762.0
  0
LINE
  8
NEU_1OG_Mauern
 39
0.2
 62
    0
 10
36111.2
 20
11331.4
 11
36111.2
 21
6650.39
  0
LINE
  8
NEU_UG_Mauern
 39
0.2
 62
    0
 10
21441.7
 20
47554.4
 11
21434.2
 21
47404.5
  0
LINE
  8
NEU_UG_Mauern
 39
0.2
 62
    0
 10
22770.1
 20
45338.0
 11
21512.0
 21
45353.3
  0
LINE
  8
NEU_UG_Mauern
 39
0.2
 62
    0
 10
21585.1
 20
47402.6
 11
21522.7
 21
46152.9
  0
LINE
  8
NEU_UG_Mauern
 39
0.2
 62
    0
 10
31061.2
 20
45271.7
 11
29769.6
 21
45271.7
  0
LINE
  8
NEU_UG_Mauern
 39
0.2
 62
    0
 10
35728.6
 20
48001.7
 11
35728.6
 21
46601.7
  0
LINE
  8
NEU_UG_Mauern
 39
0.2
 62
    0
 10
36111.2
 20
46601.7
 11
35728.6
 21
46601.7
  0
LINE
  8
NEU_UG_Einbauten
 39
0.1
 62
    0
 10
20983.3
 20
46260.6
 11
20981.8
 21
46060.6
  0
LINE
  8
NEU_UG_Einbauten
 39
0.1
 62
    0
 10
20275.4
 20
46842.5
 11
20475.4
 21
46841.5
  0
LINE
  8
NEU_UG_Mauern
 39
0.2
 62
    0
 10
18195.2
 20
49476.0
 11
18108.4
 21
47745.2
  0
LINE
  8
NEU_UG_Einbauten
 39
0.1
 62
    0
 10
20903.3
 20
46261.1
 11
20901.8
 21
46061.2
  0
LINE
  8
NEU_EG_Einbauten
 39
0.1
 62
    0
 10
30538.9
 20
31844.3
 11
29338.9
 21
31844.3
  0
LINE
  8
NEU_EG_Mauern
 39
0.2
 62
    0
 10
36793.7
 20
28245.6
 11
36093.7
 21
28245.6
  0
LINE
  8
NEU_EG_Mauern
 39
0.2
 62
    0
 10
31193.7
 20
26374.3
 11
31193.7
 21
25971.2
  0
LINE
  8
NEU_EG_Mauern
 39
0.2
 62
    0
 10
31193.7
 20
28584.3
 11
31193.7
 21
28134.3
  0
LINE
  8
NEU_EG_Einbauten
 39
0.1
 62
    0
 10
29638.9
 20
33084.3
 11
29638.9
 21
31844.3
  0
LINE
  8
NEU_EG_Mauern
 39
0.2
 62
    0
 10
28803.7
 20
26727.6
 11
24755.8
 21
26907.7
  0
LINE
  8
NEU_EG_Mauern
 39
0.2
 62
    0
 10
32893.7
 20
26524.3
 11
31193.7
 21
26524.3
  0
LINE
  8
NEU_1OG_Mauern
 39
0.2
 62
    0
 10
21764.5
 20
13240.1
 11
21544.2
 21
13251.1
  0
LINE
  8
NEU_EG_Einbauten
 39
0.1
 62
    0
 10
31913.7
 20
30264.3
 11
30113.7
 21
30264.3
  0
LINE
  8
NEU_UG_Mauern
  6
LT-9
 39
0.2
 62
    0
 10
21817.0
 20
52044.8
 11
21786.8
 21
51439.7
  0
LINE
  8
NEU_UG_Mauern
  6
LT-9
 39
0.2
 62
    0
 10
13634.6
 20
46249.8
 11
11517.5
 21
46266.5
  0
LINE
  8
NEU_UG_Mauern
 39
0.2
 62
    0
 10
34694.0
 20
45271.7
 11
31211.2
 21
45271.7
  0
LINE
  8
NEU_UG_Mauern
 39
0.2
 62
    0
 10
34694.0
 20
44651.7
 11
34694.0
 21
43191.7
  0
LINE
  8
NEU_UG_Mauern
 39
0.2
 62
    0
 10
19862.5
 20
51605.1
 11
18303.7
 21
51637.9
  0
LINE
  8
NEU_UG_Mauern
  6
LT-7
 39
0.1
 62
    0
 10
25841.3
 20
41079.7
 11
21629.9
 21
41396.4
  0
LINE
  8
NEU_UG_Mauern
  6
LT-7
 39
0.1
 62
    0
 10
21629.9
 20
41396.4
 11
18853.5
 21
41418.8
  0
LINE
  8
NEU_UG_Mauern
  6
LT-9
 39
0.2
 62
    0
 10
16783.3
 20
46211.1
 11
16633.2
 21
46213.0
  0
LINE
  8
NEU_1OG_Mauern
  6
LT-7
 39
0.1
 62
    0
 10
36844.3
 20
6676.48
 11
36844.1
 21
6676.52
  0
LINE
  8
NEU_1OG_Mauern
 39
0.2
 62
    0
 10
36811.2
 20
7393.44
 11
36844.3
 21
6676.48
  0
LINE
  8
NEU_UG_Mauern
  6
LT-7
 39
0.1
 62
    0
 10
18853.5
 20
41418.8
 11
11706.9
 21
41486.9
  0
LINE
  8
NEU_EG_Einbauten
 39
0.1
 62
    0
 10
28021.5
 20
24467.1
 11
27983.8
 21
23621.4
  0
LINE
  8
NEU_EG_Mauern
 39
0.2
 62
    0
 10
28953.7
 20
26520.7
 11
25109.6
 21
26691.8
  0
LINE
  8
NEU_EG_Einbauten
 39
0.1
 62
    0
 10
32743.7
 20
27834.3
 11
31193.7
 21
27834.3
  0
LINE
  8
NEU_EG_Einbauten
 39
0.1
 62
    0
 10
32743.7
 20
26674.3
 11
31193.7
 21
26674.3
  0
LINE
  8
NEU_EG_Einbauten
 39
0.1
 62
    0
 10
29938.9
 20
33084.3
 11
29938.9
 21
31844.3
  0
LINE
  8
NEU_EG_Mauern
 39
0.2
 62
    0
 10
36643.7
 20
25466.5
 11
36643.7
 21
24772.3
  0
LINE
  8
NEU_EG_Mauern
 39
0.2
 62
    0
 10
21622.8
 20
25584.2
 11
19353.9
 21
25611.9
  0
LINE
  8
NEU_EG_Einbauten
 39
0.1
 62
    0
 10
32743.7
 20
27834.3
 11
32743.7
 21
26674.3
  0
LINE
  8
NEU_EG_Mauern
 39
0.2
 62
    0
 10
19352.4
 20
25449.7
 11
19353.9
 21
25611.9
  0
LINE
  8
NEU_EG_Einbauten
 39
0.1
 62
    0
 10
30238.9
 20
33084.3
 11
30238.9
 21
31844.3
  0
LINE
  8
NEU_EG_Mauern
 39
0.2
 62
    0
 10
31193.7
 20
24529.6
 11
31039.2
 21
24536.5
  0
LINE
  8
NEU_EG_Einbauten
 39
0.1
 62
    0
 10
27722.9
 20
24056.7
 11
27704.1
 21
23633.9
  0
LINE
  8
NEU_EG_Einbauten
 39
0.1
 62
    0
 10
28599.7
 20
24865.1
 11
28543.3
 21
23596.6
  0
LINE
  8
NEU_EG_Einbauten
 39
0.1
 62
    0
 10
28879.5
 20
24852.6
 11
28823.0
 21
23584.1
  0
LINE
  8
NEU_EG_Mauern
 39
0.2
 62
    0
 10
31193.7
 20
24880.0
 11
31193.7
 21
24529.6
  0
LINE
  8
NEU_EG_Einbauten
 39
0.1
 62
    0
 10
30538.9
 20
33084.3
 11
29338.9
 21
33084.3
  0
LINE
  8
NEU_EG_Mauern
 39
0.2
 62
    0
 10
36793.7
 20
33136.5
 11
36493.7
 21
33136.5
  0
LINE
  8
NEU_UG_Mauern
  6
LT-7
 39
0.1
 62
    0
 10
36844.3
 20
40011.2
 11
36844.1
 21
40011.3
  0
LINE
  8
NEU_1OG_Einbauten
 39
0.1
 62
    0
 10
30556.4
 20
16416.9
 11
29356.4
 21
16416.9
  0
LINE
  8
NEU_1OG_Mauern
 39
0.2
 62
    0
 10
29356.4
 20
18927.9
 11
29356.4
 21
16416.9
  0
LINE
  8
NEU_1OG_Mauern
 39
0.2
 62
    0
 10
31806.4
 20
19055.7
 11
31806.4
 21
16416.9
  0
LINE
  8
NEU_1OG_Mauern
 39
0.2
 62
    0
 10
30556.4
 20
16416.9
 11
31816.6
 21
16416.9
  0
LINE
  8
NEU_1OG_Mauern
  6
LT-7
 39
0.1
 62
    0
 10
36844.1
 20
6676.52
 11
36846.2
 21
6629.99
  0
LINE
  8
NEU_1OG_Mauern
  6
LT-7
 39
0.1
 62
    0
 10
36844.3
 20
6676.48
 11
36844.1
 21
6676.52
  0
LINE
  8
lay-1
  6
LT-7
 39
0.1
 62
    0
 10
36844.3
 20
40011.2
 11
36844.1
 21
40011.3
  0
LINE
  8
NEU_EG_Mauern
 39
0.2
 62
    0
 10
31043.7
 20
25833.1
 11
31193.7
 21
25830.2
  0
LINE
  8
NEU_EG_Mauern
 39
0.2
 62
    0
 10
31193.7
 20
26374.3
 11
32893.7
 21
26374.3
  0
LINE
  8
NEU_EG_Mauern
 39
0.2
 62
    0
 10
31193.7
 20
25971.2
 11
31193.7
 21
25830.2
  0
LINE
  8
NEU_EG_Mauern
 39
0.2
 62
    0
 10
32243.7
 20
30264.3
 11
31913.7
 21
30264.3
  0
LINE
  8
NEU_EG_Mauern
 39
0.2
 62
    0
 10
35793.7
 20
33386.5
 11
35390.1
 21
33681.1
  0
LINE
  8
NEU_EG_Mauern
 39
0.2
 62
    0
 10
32243.7
 20
30264.3
 11
32243.7
 21
29934.3
  0
LINE
  8
NEU_EG_Mauern
 39
0.2
 62
    0
 10
31043.7
 20
26824.3
 11
31043.7
 21
26374.3
  0
LINE
  8
NEU_EG_Mauern
 39
0.2
 62
    0
 10
31043.7
 20
28584.3
 11
31043.7
 21
27684.3
  0
LINE
  8
NEU_EG_Mauern
 39
0.2
 62
    0
 10
36643.7
 20
33136.5
 11
36643.7
 21
30786.5
  0
LINE
  8
NEU_EG_Mauern
 39
0.2
 62
    0
 10
31193.7
 20
24880.0
 11
36643.7
 21
24772.3
  0
LINE
  8
NEU_EG_Einbauten
 39
0.1
 62
    0
 10
31193.7
 20
27834.3
 11
32743.7
 21
26674.3
  0
LINE
  8
NEU_EG_Mauern
 39
0.2
 62
    0
 10
31193.7
 20
27684.3
 11
31043.7
 21
27684.3
  0
LINE
  8
NEU_EG_Mauern
 39
0.2
 62
    0
 10
31193.7
 20
23628.8
 11
31193.7
 21
23478.6
  0
LINE
  8
NEU_EG_Mauern
 39
0.2
 62
    0
 10
33043.7
 20
28134.3
 11
33043.7
 21
24843.4
  0
LINE
  8
NEU_EG_Mauern
 39
0.2
 62
    0
 10
34097.3
 20
34624.7
 11
33633.7
 21
34963.0
  0
LINE
  8
NEU_EG_Mauern
 39
0.2
 62
    0
 10
31193.7
 20
26824.3
 11
31043.7
 21
26824.3
  0
LINE
  8
NEU_EG_Mauern
 39
0.2
 62
    0
 10
24755.8
 20
26907.7
 11
24686.7
 21
25353.8
  0
LINE
  8
NEU_EG_Mauern
 39
0.2
 62
    0
 10
36793.7
 20
33386.5
 11
35793.7
 21
33386.5
  0
LINE
  8
NEU_EG_Mauern
 39
0.2
 62
    0
 10
31043.7
 20
23635.4
 11
31043.7
 21
23485.3
  0
LINE
  8
NEU_EG_Mauern
 39
0.2
 62
    0
 10
33043.7
 20
28134.3
 11
31193.7
 21
28134.3
  0
LINE
  8
NEU_EG_Mauern
 39
0.2
 62
    0
 10
24686.7
 20
25353.8
 11
21622.8
 21
25584.2
  0
LINE
  8
NEU_EG_Mauern
 39
0.2
 62
    0
 10
32893.7
 20
27984.3
 11
32893.7
 21
26524.3
  0
LINE
  8
NEU_EG_Mauern
 39
0.2
 62
    0
 10
28953.7
 20
28584.3
 11
28953.7
 21
26520.7
  0
LINE
  8
NEU_EG_Mauern
 39
0.2
 62
    0
 10
19352.4
 20
25449.7
 11
12362.4
 21
25513.4
  0
LINE
  8
NEU_EG_Mauern
 39
0.2
 62
    0
 10
31043.7
 20
26374.3
 11
31043.7
 21
25833.1
  0
LINE
  8
NEU_EG_Mauern
 39
0.2
 62
    0
 10
36793.7
 20
36013.3
 11
33587.7
 21
35845.2
  0
LINE
  8
NEU_EG_Einbauten
 39
0.1
 62
    0
 10
31913.7
 20
30959.6
 11
31913.7
 21
30879.6
  0
LINE
  8
NEU_EG_Mauern
 39
0.2
 62
    0
 10
31193.7
 20
23628.8
 11
31043.7
 21
23635.4
  0
LINE
  8
NEU_EG_Einbauten
 39
0.1
 62
    0
 10
31913.7
 20
31544.3
 11
31913.7
 21
30959.6
  0
LINE
  8
NEU_EG_Mauern
 39
0.2
 62
    0
 10
36793.7
 20
25466.5
 11
36493.7
 21
25466.5
  0
LINE
  8
NEU_EG_Mauern
 39
0.2
 62
    0
 10
36643.7
 20
27995.6
 11
36643.7
 21
25716.5
  0
LINE
  8
NEU_EG_Mauern
 39
0.2
 62
    0
 10
26612.7
 20
30264.3
 11
26282.7
 21
30264.3
  0
LINE
  8
NEU_EG_Einbauten
 39
0.1
 62
    0
 10
31193.7
 20
26674.3
 11
32743.7
 21
27834.3
  0
LINE
  8
NEU_EG_Mauern
 39
0.2
 62
    0
 10
36643.7
 20
30536.5
 11
36643.7
 21
28245.6
  0
LINE
  8
NEU_EG_Mauern
 39
0.2
 62
    0
 10
28879.5
 20
24852.6
 11
28898.1
 21
25272.0
  0
LINE
  8
NEU_EG_Mauern
 39
0.2
 62
    0
 10
36093.7
 20
28245.6
 11
36093.7
 21
27995.6
  0
LINE
  8
NEU_EG_Mauern
 39
0.2
 62
    0
 10
26612.7
 20
29934.3
 11
26612.7
 21
30264.3
  0
LINE
  8
NEU_EG_Mauern
 39
0.2
 62
    0
 10
36793.7
 20
30786.5
 11
36793.7
 21
30536.5
  0
LINE
  8
NEU_EG_Mauern
 39
0.2
 62
    0
 10
36493.7
 20
25716.5
 11
36493.7
 21
25466.5
  0
LINE
  8
NEU_EG_Mauern
 39
0.2
 62
    0
 10
36793.7
 20
25716.5
 11
36493.7
 21
25716.5
  0
LINE
  8
NEU_EG_Mauern
 39
0.2
 62
    0
 10
36793.7
 20
30536.5
 11
36493.7
 21
30536.5
  0
LINE
  8
NEU_EG_Mauern
 39
0.2
 62
    0
 10
36493.7
 20
30786.5
 11
36493.7
 21
30536.5
  0
LINE
  8
NEU_EG_Mauern
 39
0.2
 62
    0
 10
36793.7
 20
30786.5
 11
36493.7
 21
30786.5
  0
LINE
  8
NEU_EG_Mauern
 39
0.2
 62
    0
 10
36493.7
 20
33386.5
 11
36493.7
 21
33136.5
  0
LINE
  8
NEU_EG_Mauern
 39
0.2
 62
    0
 10
36793.7
 20
27995.6
 11
36093.7
 21
27995.6
  0
LINE
  8
NEU_EG_Mauern
 39
0.2
 62
    0
 10
36793.7
 20
33386.5
 11
36793.7
 21
33136.5
  0
LINE
  8
NEU_EG_Mauern
 39
0.2
 62
    0
 10
36793.7
 20
25716.5
 11
36793.7
 21
25466.5
  0
LINE
  8
NEU_EG_Mauern
 39
0.2
 62
    0
 10
36793.7
 20
28245.6
 11
36793.7
 21
27995.6
  0
LINE
  8
NEU_EG_Mauern
 39
0.2
 62
    0
 10
26282.7
 20
29934.3
 11
26282.7
 21
30264.3
  0
LINE
  8
NEU_EG_Mauern
 39
0.2
 62
    0
 10
26282.7
 20
29934.3
 11
26612.7
 21
29934.3
  0
LINE
  8
NEU_EG_Mauern
 39
0.2
 62
    0
 10
31913.7
 20
30264.3
 11
31913.7
 21
29934.3
  0
LINE
  8
NEU_EG_Einbauten
 39
0.1
 62
    0
 10
31313.7
 20
31544.3
 11
31313.7
 21
30264.3
  0
LINE
  8
NEU_EG_Einbauten
 39
0.1
 62
    0
 10
31820.9
 20
30875.7
 11
32020.7
 21
30884.1
  0
LINE
  8
NEU_EG_Einbauten
 39
0.1
 62
    0
 10
29438.4
 20
32423.2
 11
29238.4
 21
32425.5
  0
LINE
  8
NEU_EG_Einbauten
 39
0.1
 62
    0
 10
29439.3
 20
32503.2
 11
29239.3
 21
32505.5
  0
TEXT
  8
lay-0
 39
0.1
 62
    0
 10
37720.5
 20
22186.6
 40
500.0
  1
EG 1974
 41
0.0115
  7
Arial
  0
TEXT
  8
lay-0
 39
0.1
 62
    0
 10
37678.8
 20
38854.0
 40
500.0
  1
UG 1974
 41
0.0115
  7
Arial
  0
ENDSEC
  0
EOF
