  0
SECTION
  2
HEADER
  9
$EXTMIN
 10
-20244.3
 20
2512.37
  9
$EXTMAX
 10
64221.0
 20
60682.4
  9
$DIMASZ
 40
4.0
  9
$DIMTXT
 40
5.0
  0
ENDSEC
  0
SECTION
  2
TABLES
  0
TABLE
  2
LTYPE
 70
  126
  0
LTYPE
  2
CONTINUOUS
 70
   64
  3
Solid line
 72
   65
 73
    0
 40
0.0
  0
LTYPE
  2
HIDDEN
 70
   64
  3
_ _ _ _ _ _ _ _ _ _ _ _ _ _ _ _ _ _ _ _ _ _ _
 72
   65
 73
    2
 40
0.375
 49
0.25
 49
-0.125
  0
LTYPE
  2
CENTER
 70
   64
  3
____ _ ____ _ ____ _ ____ _ ____ _ ____ _ ____
 72
   65
 73
    4
 40
2.0
 49
1.25
 49
-0.25
 49
0.25
 49
-0.25
  0
LTYPE
  2
DASHED
 70
   64
  3
__ __ __ __ __ __ __ __ __ __ __ __ __ __ __
 72
   65
 73
    2
 40
1.5
 49
1.25
 49
-0.25
  0
LTYPE
  2
LT-7
 70
   64
  3
METlt
 72
   65
 73
    6
 40
2.04
 49
1.2
 49
-0.24
 49
0.06
 49
-0.24
 49
0.06
 49
-0.24
  0
LTYPE
  2
LT-8
 70
   64
  3
METlt
 72
   65
 73
    4
 40
4.86
 49
3.6
 49
-0.6
 49
0.06
 49
-0.6
  0
LTYPE
  2
LT-9
 70
   64
  3
METlt
 72
   65
 73
    2
 40
0.72
 49
0.6
 49
-0.12
  0
LTYPE
  2
LT-10
 70
   64
  3
METlt
 72
   65
 73
    6
 40
9.66
 49
3.6
 49
-0.6
 49
3.6
 49
-0.6
 49
0.06
 49
-1.2
  0
LTYPE
  2
LT-11
 70
   64
  3
METlt
 72
   65
 73
    4
 40
1.74
 49
1.2
 49
-0.24
 49
0.06
 49
-0.24
  0
LTYPE
  2
LT-12
 70
   64
  3
METlt
 72
   65
 73
    2
 40
0.3
 49
0.06
 49
-0.24
  0
LTYPE
  2
LT-13
 70
   64
  3
METlt
 72
   65
 73
    2
 40
1.68
 49
1.2
 49
-0.48
  0
ENDTAB
  0
TABLE
  2
LAYER
 70
    5
  0
LAYER
  2
lay-0
 70
    0
 62
    7
  6
CONTINUOUS
  0
LAYER
  2
alt_EG_Mauern
 70
    0
 62
    7
  6
CONTINUOUS
  0
LAYER
  2
alt_EG_Einbauten
 70
    0
 62
    7
  6
CONTINUOUS
  0
LAYER
  2
alt_1OG_Mauern
 70
    0
 62
    7
  6
CONTINUOUS
  0
LAYER
  2
alt_1OG_Einbauten
 70
    0
 62
    7
  6
CONTINUOUS
  0
ENDTAB
  0
TABLE
  2
STYLE
 70
  256
  0
STYLE
  2
STANDARD
 70
   64
 40
0.0
 41
1.0
 50
0.0
 71
    0
 42
20.0
  3
TXT
  4

  0
ENDTAB
  0
ENDSEC
  0
SECTION
  2
BLOCKS
  0
BLOCK
  8
lay-0
  2
Haus_abgerissen
 70
    0
 10
0.0
 20
0.0
  0
LINE
  8
lay-1
 62
    0
 10
-176.777
 20
-176.777
 11
176.777
 21
176.777
  0
LINE
  8
lay-1
 62
    0
 10
-250.0
 20
3.63798e-012
 11
250.0
 21
3.63798e-012
  0
LINE
  8
lay-1
 62
    0
 10
-176.777
 20
176.777
 11
176.777
 21
-176.777
  0
LINE
  8
lay-1
 62
    0
 10
3.63798e-012
 20
-250.0
 11
3.63798e-012
 21
250.0
  0
ENDBLK
  8
lay-0
  0
BLOCK
  8
lay-0
  2
Zeichnung_ohne_Ausmass
 70
    0
 10
0.0
 20
0.0
  0
CIRCLE
  8
lay-1
 62
    0
 10
-7.27596e-012
 20
0.0
 40
300.0
  0
LINE
  8
Kat1865_Gebaeude
 62
    0
 10
-105.0
 20
175.001
 11
105.0
 21
175.001
  0
LINE
  8
Kat1865_Gebaeude
 62
    0
 10
105.0
 20
175.001
 11
-105.0
 21
-174.999
  0
LINE
  8
Kat1865_Gebaeude
 62
    0
 10
-105.0
 20
-174.999
 11
105.0
 21
-174.999
  0
ENDBLK
  8
lay-0
  0
BLOCK
  8
lay-0
  2
keine_Angaben
 70
    0
 10
0.0
 20
0.0
  0
LINE
  8
lay-0
 62
    0
 10
-261.109
 20
150.751
 11
261.109
 21
150.751
  0
LINE
  8
lay-0
 62
    0
 10
-261.109
 20
150.751
 11
-3.63798e-012
 21
-301.503
  0
LINE
  8
lay-0
 62
    0
 10
261.109
 20
150.751
 11
-3.63798e-012
 21
-301.503
  0
CIRCLE
  8
lay-0
 62
    0
 10
-3.63798e-012
 20
-1.09139e-011
 40
150.751
  0
ENDBLK
  8
lay-0
  0
BLOCK
  8
lay-0
  2
unvollst_Unterlagen
 70
    0
 10
0.0
 20
0.0
  0
LINE
  8
lay-1
 62
    0
 10
-237.764
 20
77.2542
 11
-56.1285
 21
77.2542
  0
LINE
  8
lay-1
 62
    0
 10
56.1285
 20
77.2542
 11
237.764
 21
77.2542
  0
LINE
  8
lay-1
 62
    0
 10
-146.946
 20
-202.254
 11
-90.8178
 21
-29.5085
  0
LINE
  8
lay-1
 62
    0
 10
-56.1285
 20
77.2542
 11
-1.09139e-011
 21
250.0
  0
LINE
  8
lay-1
 62
    0
 10
-237.764
 20
77.2542
 11
-90.8178
 21
-29.5085
  0
LINE
  8
lay-1
 62
    0
 10
-2.54659e-011
 20
-95.4915
 11
146.946
 21
-202.254
  0
LINE
  8
lay-1
 62
    0
 10
237.764
 20
77.2542
 11
90.8178
 21
-29.5085
  0
LINE
  8
lay-1
 62
    0
 10
-2.54659e-011
 20
-95.4915
 11
-146.946
 21
-202.254
  0
LINE
  8
lay-1
 62
    0
 10
-1.09139e-011
 20
250.0
 11
56.1285
 21
77.2542
  0
LINE
  8
lay-1
 62
    0
 10
90.8178
 20
-29.5085
 11
146.946
 21
-202.254
  0
ENDBLK
  8
lay-0
  0
BLOCK
  8
lay-0
  2
Antritt_NEU
 70
    0
 10
0.0
 20
0.0
  0
LINE
  8
lay-1
 62
    1
 10
40.0
 20
100.0
 11
40.0
 21
-100.0
  0
LINE
  8
lay-1
 62
    1
 10
-40.0
 20
100.0
 11
-40.0
 21
-100.0
  0
ENDBLK
  8
lay-0
  0
BLOCK
  8
lay-0
  2
Antritt_alt
 70
    0
 10
0.0
 20
0.0
  0
LINE
  8
lay-1
 62
    6
 10
40.0
 20
100.0
 11
40.0
 21
-100.0
  0
LINE
  8
lay-1
 62
    6
 10
-40.0
 20
100.0
 11
-40.0
 21
-100.0
  0
ENDBLK
  8
lay-0
  0
ENDSEC
  0
SECTION
  2
ENTITIES
  0
POINT
  8
lay-0
 62
    8
 10
40342.7
 20
30547.4
  0
POINT
  8
lay-0
 62
    8
 10
7936.15
 20
30547.4
  0
TEXT
  8
lay-0
 39
0.2
 62
    0
 10
7988.78
 20
58343.0
 40
500.0
  1
Rennweg  29 / 311a   "Pfeil"
 41
0.0115
  7
Arial
  0
TEXT
  8
lay-0
 39
0.2
 62
    0
 10
7987.01
 20
57034.2
 40
500.0
  1
Zürich um 1865
 41
0.0115
  7
Arial
  0
POINT
  8
lay-0
 62
    0
 10
38956.3
 20
59297.4
  0
POINT
  8
lay-0
 62
    8
 10
32741.0
 20
30547.4
  0
POINT
  8
lay-0
 62
    8
 10
40342.7
 20
23297.4
  0
TEXT
  8
lay-0
 39
0.1
 62
    0
 10
37685.4
 20
38854.0
 40
500.0
  1
EG 1894
 41
0.0115
  7
Arial
 72
    2
 11
40643.8
 21
38854.0
  0
POINT
  8
lay-0
 62
    8
 10
32741.0
 20
13880.0
  0
POINT
  8
lay-0
 62
    8
 10
40342.7
 20
39964.8
  0
POINT
  8
lay-0
 62
    8
 10
40342.7
 20
37797.4
  0
POINT
  8
lay-0
 62
    8
 10
40342.7
 20
54464.8
  0
POINT
  8
lay-0
 62
    8
 10
32741.0
 20
47214.8
  0
POINT
  8
lay-0
 62
    8
 10
40342.7
 20
6629.99
  0
POINT
  8
lay-0
 62
    8
 10
15537.8
 20
13880.0
  0
POINT
  8
lay-0
 62
    8
 10
15537.8
 20
47214.8
  0
POINT
  8
lay-0
 62
    8
 10
24139.4
 20
31547.4
  0
POINT
  8
lay-0
 62
    8
 10
40342.7
 20
21130.0
  0
POINT
  8
lay-0
 62
    8
 10
24139.4
 20
43006.1
  0
POINT
  8
lay-0
 62
    8
 10
24139.4
 20
18088.7
  0
POINT
  8
lay-0
 62
    8
 10
40342.7
 20
31547.4
  0
POINT
  8
lay-0
 62
    8
 10
7936.15
 20
31547.4
  0
POINT
  8
lay-0
 62
    8
 10
24139.4
 20
29547.4
  0
LINE
  8
alt_1OG_Einbauten
 39
0.1
 62
    0
 10
33207.4
 20
31221.4
 11
33209.3
 21
31615.9
  0
LINE
  8
alt_1OG_Einbauten
 39
0.1
 62
    0
 10
33419.5
 20
31008.6
 11
33422.4
 21
31614.9
  0
POINT
  8
lay-0
 62
    8
 10
23139.4
 20
6629.99
  0
POINT
  8
lay-0
 62
    8
 10
40342.7
 20
29547.4
  0
POINT
  8
lay-0
 62
    8
 10
7936.15
 20
29547.4
  0
LINE
  8
alt_1OG_Einbauten
 39
0.1
 62
    0
 10
33631.5
 20
30795.7
 11
33635.4
 21
31613.9
  0
POINT
  8
lay-0
 62
    8
 10
25139.4
 20
31547.4
  0
POINT
  8
lay-0
 62
    8
 10
23139.4
 20
31547.4
  0
POINT
  8
lay-0
 62
    8
 10
25139.4
 20
6629.99
  0
POINT
  8
lay-0
 62
    8
 10
24139.4
 20
47214.8
  0
POINT
  8
lay-0
 62
    8
 10
24139.4
 20
13880.0
  0
POINT
  8
lay-0
 62
    8
 10
23139.4
 20
54464.8
  0
POINT
  8
lay-0
 62
    8
 10
25139.4
 20
54464.8
  0
POINT
  8
lay-0
 62
    0
 10
40987.9
 20
3897.37
  0
POINT
  8
lay-0
 62
    0
 10
2988.78
 20
31597.4
  0
LINE
  8
lay-0
 39
0.1
 62
    0
 10
7936.15
 20
56397.3
 11
40646.6
 21
56397.3
  0
POINT
  8
lay-0
 62
    8
 10
25139.4
 20
29547.4
  0
TEXT
  8
lay-0
 39
0.1
 62
    0
 10
37012.2
 20
22186.6
 40
500.0
  1
1.OG 1894
 41
0.0115
  7
Arial
  0
LINE
  8
lay-0
 39
0.1
 62
    0
 10
38311.4
 20
58398.1
 11
39872.8
 21
57481.1
  0
TEXT
  8
lay-0
 39
0.1
 62
    0
 10
36750.7
 20
55088.6
 40
330.0
  1
gezeich.: AG, LK
 41
0.0115
  7
Arial
 72
    2
 11
40463.2
 21
55088.6
  0
POINT
  8
lay-0
 62
    8
 10
23139.4
 20
29547.4
  0
LINE
  8
alt_1OG_Einbauten
 39
0.1
 62
    0
 10
31526.7
 20
30666.4
 11
33901.9
 21
30668.8
  0
LINE
  8
alt_1OG_Mauern
 39
0.2
 62
    0
 10
23628.1
 20
31822.1
 11
23622.1
 21
31985.6
  0
POINT
  8
lay-0
 62
    0
 10
5988.78
 20
3897.37
  0
POINT
  8
lay-0
 62
    8
 10
15537.8
 20
43006.1
  0
LINE
  8
lay-0
 39
0.1
 62
    0
 10
39096.3
 20
57937.1
 11
38637.8
 21
57156.4
  0
LINE
  8
lay-0
 39
0.1
 62
    0
 10
39872.8
 20
57481.1
 11
39550.6
 21
58720.3
  0
ARC
  8
lay-0
 39
0.1
 62
    0
 10
39092.1
 20
57939.6
 40
905.411
 50
239.889
 51
599.889
  0
POINT
  8
lay-0
 62
    8
 10
32741.0
 20
43006.1
  0
LINE
  8
lay-0
 39
0.1
 62
    0
 10
38311.4
 20
58398.1
 11
39550.6
 21
58720.3
  0
POINT
  8
lay-0
 62
    8
 10
15537.8
 20
30547.4
  0
POINT
  8
lay-0
 62
    8
 10
15537.8
 20
18088.7
  0
POINT
  8
lay-0
 62
    8
 10
7936.15
 20
6629.99
  0
POINT
  8
lay-0
 62
    8
 10
7936.15
 20
21130.0
  0
TEXT
  8
lay-0
 39
0.1
 62
    0
 10
38680.3
 20
55713.1
 40
330.0
  1
M 1/200
 41
0.0115
  7
Arial
 72
    2
 11
40463.2
 21
55713.1
  0
POINT
  8
lay-0
 62
    8
 10
32741.0
 20
18088.7
  0
POINT
  8
lay-0
 62
    8
 10
7936.15
 20
39964.8
  0
POINT
  8
lay-0
 62
    8
 10
7936.15
 20
54464.8
  0
POINT
  8
lay-0
 62
    8
 10
7936.15
 20
23297.4
  0
LINE
  8
alt_1OG_Mauern
 39
0.2
 62
    0
 10
23628.1
 20
31822.1
 11
23627.4
 21
31557.2
  0
LINE
  8
alt_1OG_Einbauten
 39
0.1
 62
    0
 10
33796.9
 20
30668.7
 11
33890.2
 21
31612.7
  0
POINT
  8
lay-0
 62
    8
 10
7936.15
 20
37797.4
  0
POINT
  8
lay-0
 62
    8
 10
24139.4
 20
30547.4
  0
LINE
  8
alt_1OG_Einbauten
 39
0.1
 62
    0
 10
31774.7
 20
30688.1
 11
31779.2
 21
31622.7
  0
LINE
  8
alt_1OG_Einbauten
 39
0.1
 62
    0
 10
32022.7
 20
30686.9
 11
32027.1
 21
31621.5
  0
LINE
  8
alt_1OG_Einbauten
 39
0.1
 62
    0
 10
32270.6
 20
30685.7
 11
32275.0
 21
31620.3
  0
LINE
  8
alt_1OG_Einbauten
 39
0.1
 62
    0
 10
31526.7
 20
30666.4
 11
31531.2
 21
31623.9
  0
LINE
  8
alt_1OG_Einbauten
 39
0.1
 62
    0
 10
32812.6
 20
31617.8
 11
33758.2
 21
30668.6
  0
LINE
  8
alt_1OG_Mauern
 39
0.2
 62
    0
 10
35953.3
 20
25691.0
 11
36103.7
 21
26120.8
  0
LINE
  8
alt_1OG_Mauern
 39
0.2
 62
    0
 10
39934.4
 20
26202.1
 11
39959.5
 21
28683.8
  0
LINE
  8
alt_1OG_Mauern
 39
0.2
 62
    0
 10
39961.5
 20
28883.8
 11
39977.4
 21
30455.1
  0
LINE
  8
alt_1OG_Mauern
 39
0.2
 62
    0
 10
31376.1
 20
25561.7
 11
29701.0
 21
25466.7
  0
LINE
  8
alt_1OG_Mauern
 39
0.2
 62
    0
 10
23633.2
 20
26870.9
 11
23814.2
 21
26870.4
  0
LINE
  8
alt_1OG_Mauern
 39
0.2
 62
    0
 10
40320.1
 20
29730.2
 11
40120.1
 21
29732.2
  0
LINE
  8
alt_1OG_Mauern
  6
LT-7
 39
0.1
 62
    0
 10
30998.2
 20
31952.9
 11
30224.2
 21
31667.6
  0
LINE
  8
alt_1OG_Mauern
 39
0.2
 62
    0
 10
30373.8
 20
27307.0
 11
24364.9
 21
27136.1
  0
LINE
  8
alt_1OG_Mauern
 39
0.2
 62
    0
 10
40318.6
 20
29580.2
 11
40118.6
 21
29582.2
  0
LINE
  8
alt_1OG_Mauern
 39
0.2
 62
    0
 10
40326.7
 20
30380.1
 11
40126.7
 21
30382.2
  0
LINE
  8
alt_1OG_Mauern
 39
0.2
 62
    0
 10
23436.2
 20
29723.4
 11
23422.2
 21
29872.7
  0
LINE
  8
alt_EG_Mauern
 39
0.2
 62
    0
 10
33283.4
 20
42728.3
 11
33290.1
 21
43974.3
  0
LINE
  8
alt_1OG_Mauern
 39
0.2
 62
    0
 10
30523.6
 20
27161.2
 11
23814.5
 21
26970.4
  0
LINE
  8
alt_EG_Mauern
 39
0.2
 62
    0
 10
40326.1
 20
46988.2
 11
40299.2
 21
44330.6
  0
LINE
  8
alt_1OG_Mauern
 39
0.2
 62
    0
 10
23814.5
 20
26970.4
 11
23810.2
 21
25377.5
  0
LINE
  8
alt_1OG_Mauern
 39
0.2
 62
    0
 10
23650.9
 20
25477.9
 11
23810.5
 21
25477.5
  0
LINE
  8
alt_1OG_Mauern
 39
0.2
 62
    0
 10
29674.7
 20
30045.8
 11
30378.0
 21
29693.9
  0
LINE
  8
alt_1OG_Mauern
 39
0.2
 62
    0
 10
24173.9
 20
30453.2
 11
23624.0
 21
30398.8
  0
LINE
  8
alt_1OG_Mauern
 39
0.2
 62
    0
 10
24176.0
 20
31253.2
 11
23626.9
 21
31407.1
  0
LINE
  8
alt_1OG_Mauern
 39
0.2
 62
    0
 10
30526.6
 20
28917.1
 11
30523.6
 21
27161.2
  0
LINE
  8
alt_1OG_Mauern
 39
0.2
 62
    0
 10
28064.3
 20
30048.7
 11
28064.6
 21
30198.7
  0
LINE
  8
alt_1OG_Mauern
 39
0.2
 62
    0
 10
23818.0
 20
28252.0
 11
23618.0
 21
28252.5
  0
LINE
  8
alt_1OG_Mauern
 39
0.2
 62
    0
 10
28064.3
 20
30048.7
 11
29674.7
 21
30045.8
  0
LINE
  8
alt_1OG_Mauern
 39
0.2
 62
    0
 10
27164.3
 20
30050.2
 11
27164.6
 21
30200.2
  0
LINE
  8
alt_1OG_Einbauten
 39
0.1
 62
    0
 10
33989.5
 20
30617.1
 11
34991.1
 21
31362.3
  0
LINE
  8
alt_EG_Mauern
 39
0.2
 62
    0
 10
40342.7
 20
48629.6
 11
40337.8
 21
48149.3
  0
LINE
  8
alt_1OG_Mauern
 39
0.2
 62
    0
 10
23964.5
 20
26974.7
 11
23960.2
 21
25379.8
  0
LINE
  8
alt_1OG_Mauern
 39
0.2
 62
    0
 10
30528.2
 20
29786.5
 11
30526.9
 21
29067.1
  0
LINE
  8
alt_1OG_Mauern
 39
0.2
 62
    0
 10
29710.3
 20
30195.8
 11
30528.2
 21
29786.5
  0
LINE
  8
alt_1OG_Mauern
 39
0.2
 62
    0
 10
18435.4
 20
25020.6
 11
15391.8
 21
24882.4
  0
LINE
  8
alt_1OG_Mauern
 39
0.2
 62
    0
 10
21479.0
 20
25158.9
 11
18435.4
 21
25020.6
  0
LINE
  8
alt_1OG_Mauern
 39
0.2
 62
    0
 10
28064.6
 20
30198.7
 11
29710.3
 21
30195.8
  0
LINE
  8
alt_1OG_Mauern
 39
0.2
 62
    0
 10
24372.8
 20
30055.1
 11
27164.3
 21
30050.2
  0
LINE
  8
alt_EG_Mauern
 39
0.2
 62
    0
 10
33083.1
 20
42669.8
 11
33090.1
 21
43975.4
  0
LINE
  8
alt_1OG_Mauern
 39
0.2
 62
    0
 10
40285.4
 20
26303.2
 11
40085.4
 21
26305.3
  0
LINE
  8
alt_1OG_Mauern
 39
0.2
 62
    0
 10
24373.2
 20
30205.1
 11
27164.6
 21
30200.2
  0
LINE
  8
alt_1OG_Mauern
  6
LT-7
 39
0.1
 62
    0
 10
30792.2
 20
25117.0
 11
23617.6
 21
24821.4
  0
LINE
  8
alt_1OG_Mauern
  6
LT-7
 39
0.1
 62
    0
 10
33050.5
 20
25611.4
 11
30792.2
 21
25117.0
  0
LINE
  8
alt_1OG_Mauern
 39
0.2
 62
    0
 10
21572.9
 20
25314.8
 11
21479.0
 21
25158.9
  0
LINE
  8
alt_1OG_Einbauten
 39
0.1
 62
    0
 10
23617.5
 20
28103.4
 11
18732.2
 21
25034.1
  0
LINE
  8
alt_1OG_Mauern
 39
0.2
 62
    0
 10
22417.7
 20
25154.1
 11
21572.9
 21
25314.8
  0
LINE
  8
alt_1OG_Mauern
 39
0.2
 62
    0
 10
40342.7
 20
31962.2
 11
40280.4
 21
25809.5
  0
LINE
  8
alt_1OG_Mauern
 39
0.2
 62
    0
 10
23620.1
 20
29037.8
 11
23617.5
 21
28103.4
  0
LINE
  8
alt_EG_Mauern
 39
0.2
 62
    0
 10
22417.7
 20
41821.5
 11
21572.9
 21
41982.2
  0
LINE
  8
alt_1OG_Mauern
  6
LT-7
 39
0.1
 62
    0
 10
30224.2
 20
31667.6
 11
23628.1
 21
31822.1
  0
LINE
  8
alt_EG_Mauern
 39
0.2
 62
    0
 10
21080.9
 20
45930.5
 11
18433.9
 21
45898.2
  0
LINE
  8
alt_EG_Mauern
 39
0.2
 62
    0
 10
18433.9
 20
45898.2
 11
18469.7
 21
44437.8
  0
LINE
  8
alt_1OG_Mauern
 39
0.2
 62
    0
 10
23817.7
 20
28152.0
 11
24367.4
 21
28048.0
  0
LINE
  8
alt_1OG_Mauern
  6
LT-7
 39
0.1
 62
    0
 10
40342.7
 20
31962.2
 11
30998.2
 21
31952.9
  0
LINE
  8
alt_1OG_Mauern
 39
0.2
 62
    0
 10
23617.5
 20
28103.4
 11
23655.5
 21
25120.8
  0
LINE
  8
alt_1OG_Einbauten
 39
0.1
 62
    0
 10
33959.2
 20
30650.8
 11
34613.8
 21
31609.2
  0
LINE
  8
alt_1OG_Einbauten
 39
0.1
 62
    0
 10
34968.5
 20
30867.9
 11
34001.9
 21
30573.2
  0
LINE
  8
alt_1OG_Einbauten
 39
0.1
 62
    0
 10
34001.9
 20
30564.2
 11
34000.4
 21
30531.3
  0
ARC
  8
alt_1OG_Einbauten
 39
0.1
 62
    0
 10
33902.0
 20
30568.8
 40
100.0
 50
357.384
 51
450.057
  0
LINE
  8
alt_1OG_Einbauten
 39
0.1
 62
    0
 10
34000.4
 20
30531.3
 11
34951.4
 21
30491.9
  0
LINE
  8
alt_1OG_Einbauten
 39
0.1
 62
    0
 10
34520.0
 20
30609.9
 11
34511.7
 21
30410.0
  0
LINE
  8
alt_1OG_Einbauten
 39
0.1
 62
    0
 10
34440.1
 20
30613.2
 11
34431.8
 21
30413.4
  0
LINE
  8
alt_1OG_Mauern
 39
0.2
 62
    0
 10
23641.1
 20
26249.4
 11
23812.6
 21
26249.0
  0
LINE
  8
alt_1OG_Mauern
 39
0.2
 62
    0
 10
35141.3
 20
30266.3
 11
34941.5
 21
30275.4
  0
LINE
  8
alt_1OG_Mauern
 39
0.2
 62
    0
 10
30825.4
 20
31253.4
 11
24376.4
 21
31404.4
  0
LINE
  8
alt_1OG_Mauern
 39
0.2
 62
    0
 10
40084.4
 20
26205.3
 11
40109.5
 21
28682.3
  0
LINE
  8
alt_EG_Mauern
 39
0.2
 62
    0
 10
40125.1
 20
46890.2
 11
40126.1
 21
46990.2
  0
LINE
  8
alt_1OG_Mauern
 39
0.2
 62
    0
 10
23626.9
 20
31407.1
 11
23524.4
 21
31403.2
  0
LINE
  8
alt_1OG_Mauern
 39
0.2
 62
    0
 10
24176.0
 20
31253.2
 11
24175.8
 21
31153.2
  0
LINE
  8
alt_1OG_Mauern
 39
0.2
 62
    0
 10
24174.2
 20
30553.2
 11
24173.9
 21
30453.2
  0
LINE
  8
alt_EG_Mauern
 39
0.2
 62
    0
 10
40084.4
 20
42872.6
 11
40085.4
 21
42972.6
  0
LINE
  8
alt_1OG_Einbauten
 39
0.1
 62
    0
 10
23901.5
 20
31330.1
 11
23899.1
 21
30426.0
  0
LINE
  8
alt_1OG_Mauern
 39
0.2
 62
    0
 10
34981.4
 20
26766.8
 11
34781.6
 21
26776.0
  0
LINE
  8
alt_1OG_Mauern
 39
0.2
 62
    0
 10
24372.8
 20
30055.1
 11
24371.8
 21
29682.7
  0
LINE
  8
alt_1OG_Mauern
 39
0.2
 62
    0
 10
24367.4
 20
28048.0
 11
24364.9
 21
27136.1
  0
LINE
  8
alt_1OG_Mauern
 39
0.2
 62
    0
 10
23624.0
 20
30398.8
 11
23622.5
 21
29891.6
  0
LINE
  8
alt_1OG_Mauern
 39
0.2
 62
    0
 10
23627.4
 20
31557.2
 11
23518.6
 21
31553.0
  0
LINE
  8
alt_1OG_Mauern
 39
0.2
 62
    0
 10
34900.4
 20
29376.4
 11
34885.3
 21
29046.3
  0
LINE
  8
alt_1OG_Mauern
 39
0.2
 62
    0
 10
34688.2
 20
31608.8
 11
31010.9
 21
31626.4
  0
LINE
  8
alt_1OG_Mauern
 39
0.2
 62
    0
 10
30825.4
 20
31253.4
 11
31010.9
 21
31626.4
  0
LINE
  8
alt_1OG_Mauern
 39
0.2
 62
    0
 10
18019.8
 20
32086.5
 11
18038.9
 21
31771.5
  0
LINE
  8
alt_1OG_Mauern
 39
0.2
 62
    0
 10
30626.9
 20
29066.6
 11
30626.6
 21
28916.6
  0
LINE
  8
alt_1OG_Mauern
 39
0.2
 62
    0
 10
24376.4
 20
31404.4
 11
24375.8
 21
31152.6
  0
LINE
  8
alt_1OG_Mauern
 39
0.2
 62
    0
 10
24374.2
 20
30552.6
 11
24373.2
 21
30205.1
  0
LINE
  8
alt_1OG_Einbauten
 39
0.1
 62
    0
 10
24175.8
 20
31153.2
 11
24174.2
 21
30553.2
  0
LINE
  8
alt_1OG_Einbauten
 39
0.1
 62
    0
 10
23525.6
 20
30943.2
 11
23725.6
 21
30942.7
  0
LINE
  8
alt_1OG_Einbauten
 39
0.1
 62
    0
 10
23525.4
 20
30863.2
 11
23725.4
 21
30862.7
  0
LINE
  8
alt_1OG_Einbauten
 39
0.1
 62
    0
 10
23626.9
 20
31407.1
 11
23624.0
 21
30398.8
  0
LINE
  8
alt_1OG_Mauern
 39
0.2
 62
    0
 10
23622.1
 20
29740.9
 11
23620.1
 21
29037.8
  0
LINE
  8
alt_1OG_Mauern
 39
0.2
 62
    0
 10
14998.9
 20
31962.2
 11
18019.8
 21
32086.5
  0
LINE
  8
alt_1OG_Mauern
 39
0.2
 62
    0
 10
35953.3
 20
25691.0
 11
34931.0
 21
25662.9
  0
LINE
  8
alt_EG_Mauern
 39
0.2
 62
    0
 10
23605.2
 20
41789.5
 11
22417.7
 21
41821.5
  0
LINE
  8
alt_EG_Einbauten
 39
0.1
 62
    0
 10
23617.5
 20
44770.8
 11
18732.2
 21
41701.5
  0
LINE
  8
alt_EG_Einbauten
 39
0.1
 62
    0
 10
18433.9
 20
45898.2
 11
23605.2
 21
41789.5
  0
LINE
  8
alt_EG_Einbauten
 39
0.1
 62
    0
 10
16923.1
 20
46888.7
 11
17373.4
 21
46624.2
  0
LINE
  8
alt_EG_Einbauten
 39
0.1
 62
    0
 10
16923.1
 20
46888.7
 11
16919.2
 21
46366.5
  0
LINE
  8
alt_EG_Einbauten
 39
0.1
 62
    0
 10
17373.4
 20
46624.2
 11
16919.2
 21
46366.5
  0
CIRCLE
  8
alt_EG_Einbauten
 39
0.1
 62
    0
 10
17071.9
 20
46626.5
 40
150.751
  0
LINE
  8
alt_1OG_Mauern
 39
0.2
 62
    0
 10
23605.2
 20
25122.1
 11
22417.7
 21
25154.1
  0
LINE
  8
alt_1OG_Einbauten
 39
0.1
 62
    0
 10
23627.7
 20
27303.4
 11
22727.8
 21
27292.0
  0
LINE
  8
alt_1OG_Einbauten
 39
0.1
 62
    0
 10
23623.9
 20
27603.4
 11
22724.0
 21
27592.0
  0
LINE
  8
alt_1OG_Einbauten
 39
0.1
 62
    0
 10
23620.1
 20
27903.4
 11
22720.2
 21
27891.9
  0
LINE
  8
alt_1OG_Einbauten
 39
0.1
 62
    0
 10
16923.1
 20
30221.3
 11
17373.4
 21
29956.8
  0
LINE
  8
alt_1OG_Einbauten
 39
0.1
 62
    0
 10
16923.1
 20
30221.3
 11
16919.2
 21
29699.1
  0
LINE
  8
alt_1OG_Einbauten
 39
0.1
 62
    0
 10
17373.4
 20
29956.8
 11
16919.2
 21
29699.1
  0
LINE
  8
alt_1OG_Einbauten
 39
0.1
 62
    0
 10
23646.8
 20
25803.5
 11
22746.9
 21
25792.1
  0
LINE
  8
alt_1OG_Einbauten
 39
0.1
 62
    0
 10
22746.9
 20
25792.1
 11
22717.8
 21
28081.6
  0
LINE
  8
alt_1OG_Einbauten
 39
0.1
 62
    0
 10
22743.0
 20
26092.1
 11
23643.0
 21
26103.5
  0
LINE
  8
alt_1OG_Einbauten
 39
0.1
 62
    0
 10
23639.2
 20
26403.5
 11
22739.2
 21
26392.0
  0
LINE
  8
alt_1OG_Einbauten
 39
0.1
 62
    0
 10
23635.3
 20
26703.5
 11
22735.4
 21
26692.0
  0
LINE
  8
alt_1OG_Einbauten
 39
0.1
 62
    0
 10
23631.5
 20
27003.4
 11
22731.6
 21
26992.0
  0
CIRCLE
  8
alt_1OG_Einbauten
 39
0.1
 62
    0
 10
17071.9
 20
29959.1
 40
150.751
  0
LINE
  8
alt_1OG_Mauern
 39
0.2
 62
    0
 10
23622.1
 20
29740.9
 11
23436.2
 21
29723.4
  0
LINE
  8
alt_1OG_Einbauten
 39
0.1
 62
    0
 10
33510.2
 20
30668.4
 11
33511.4
 21
30916.3
  0
LINE
  8
alt_1OG_Einbauten
 39
0.1
 62
    0
 10
33921.4
 20
30668.8
 11
34208.9
 21
31611.1
  0
LINE
  8
alt_1OG_Einbauten
 39
0.1
 62
    0
 10
32518.4
 20
30667.4
 11
32523.0
 21
31619.2
  0
LINE
  8
alt_1OG_Einbauten
 39
0.1
 62
    0
 10
32995.4
 20
31434.3
 11
32996.2
 21
31616.9
  0
LINE
  8
alt_1OG_Einbauten
 39
0.1
 62
    0
 10
18433.9
 20
29230.8
 11
23605.2
 21
25122.1
  0
LINE
  8
alt_1OG_Einbauten
 39
0.1
 62
    0
 10
23617.5
 20
28103.4
 11
22717.8
 21
28081.6
  0
LINE
  8
alt_1OG_Mauern
 39
0.2
 62
    0
 10
31390.6
 20
25879.1
 11
31376.1
 21
25561.7
  0
LINE
  8
alt_1OG_Mauern
 39
0.2
 62
    0
 10
22717.8
 20
28081.6
 11
22250.9
 21
28070.2
  0
LINE
  8
alt_1OG_Mauern
 39
0.2
 62
    0
 10
15015.3
 20
31488.7
 11
14998.9
 21
31962.2
  0
LINE
  8
alt_1OG_Mauern
  6
LT-7
 39
0.1
 62
    0
 10
23617.6
 20
24821.4
 11
23605.2
 21
25122.1
  0
LINE
  8
alt_1OG_Mauern
 39
0.2
 62
    0
 10
15391.8
 20
24882.4
 11
15015.3
 21
31488.7
  0
LINE
  8
alt_1OG_Mauern
 39
0.2
 62
    0
 10
35100.2
 20
29367.2
 11
34900.4
 21
29376.4
  0
LINE
  8
alt_1OG_Mauern
 39
0.2
 62
    0
 10
34981.4
 20
26766.8
 11
34931.0
 21
25662.9
  0
LINE
  8
alt_1OG_Mauern
 39
0.2
 62
    0
 10
23821.5
 20
29581.9
 11
23817.7
 21
28152.0
  0
LINE
  8
alt_1OG_Mauern
 39
0.2
 62
    0
 10
35100.2
 20
29367.2
 11
35015.6
 21
27516.1
  0
LINE
  8
alt_1OG_Mauern
 39
0.2
 62
    0
 10
33183.4
 20
26058.8
 11
32643.4
 21
25755.4
  0
LINE
  8
alt_1OG_Mauern
 39
0.2
 62
    0
 10
35002.3
 20
31607.4
 11
34941.5
 21
30275.4
  0
LINE
  8
alt_1OG_Einbauten
 39
0.1
 62
    0
 10
33262.3
 20
30668.1
 11
33264.6
 21
31164.0
  0
LINE
  8
alt_1OG_Einbauten
 39
0.1
 62
    0
 10
33014.3
 20
30667.9
 11
33017.9
 21
31411.7
  0
LINE
  8
alt_1OG_Einbauten
 39
0.1
 62
    0
 10
32766.4
 20
30667.6
 11
32770.9
 21
31618.0
  0
LINE
  8
alt_1OG_Mauern
  6
LT-7
 39
0.1
 62
    0
 10
34931.0
 20
25662.9
 11
33050.5
 21
25611.4
  0
LINE
  8
alt_1OG_Mauern
 39
0.2
 62
    0
 10
40111.5
 20
28882.3
 11
39811.5
 21
28885.3
  0
LINE
  8
alt_EG_Mauern
 39
0.2
 62
    0
 10
33295.2
 20
44925.1
 11
33298.5
 21
45525.3
  0
LINE
  8
alt_EG_Mauern
 39
0.2
 62
    0
 10
33095.2
 20
44926.2
 11
33099.3
 21
45682.4
  0
LINE
  8
alt_EG_Einbauten
 39
0.1
 62
    0
 10
29726.8
 20
45679.8
 11
30225.9
 21
45179.0
  0
LINE
  8
alt_EG_Mauern
 39
0.2
 62
    0
 10
40137.8
 20
48150.3
 11
40138.8
 21
48250.3
  0
LINE
  8
alt_EG_Mauern
 39
0.2
 62
    0
 10
40285.4
 20
42970.6
 11
40280.4
 21
42476.9
  0
LINE
  8
alt_EG_Mauern
 39
0.2
 62
    0
 10
40099.2
 20
44332.6
 11
40100.2
 21
44432.6
  0
LINE
  8
alt_1OG_Mauern
 39
0.2
 62
    0
 10
40109.5
 20
28682.3
 11
39809.5
 21
28685.3
  0
LINE
  8
alt_1OG_Mauern
 39
0.2
 62
    0
 10
35002.3
 20
31607.4
 11
34688.2
 21
31608.8
  0
LINE
  8
alt_1OG_Mauern
 39
0.2
 62
    0
 10
30626.9
 20
29066.6
 11
30526.9
 21
29067.1
  0
LINE
  8
alt_EG_Einbauten
 39
0.1
 62
    0
 10
23238.1
 20
42365.7
 11
23235.5
 21
42565.7
  0
LINE
  8
alt_EG_Einbauten
 39
0.1
 62
    0
 10
29728.3
 20
46521.5
 11
29726.8
 21
45679.8
  0
LINE
  8
alt_EG_Einbauten
 39
0.1
 62
    0
 10
23158.1
 20
42364.7
 11
23155.6
 21
42564.7
  0
LINE
  8
alt_EG_Einbauten
 39
0.1
 62
    0
 10
23646.8
 20
42470.9
 11
22746.9
 21
42459.5
  0
LINE
  8
alt_1OG_Mauern
 39
0.2
 62
    0
 10
30626.6
 20
28916.6
 11
30526.2
 21
28917.1
  0
LINE
  8
alt_1OG_Mauern
 39
0.2
 62
    0
 10
31540.4
 20
25872.2
 11
31390.6
 21
25879.1
  0
LINE
  8
alt_EG_Einbauten
 39
0.1
 62
    0
 10
30034.6
 20
45371.0
 11
30226.2
 21
45370.6
  0
LINE
  8
alt_EG_Einbauten
 39
0.1
 62
    0
 10
29843.3
 20
45563.0
 11
30226.5
 21
45562.3
  0
LINE
  8
alt_1OG_Mauern
 39
0.2
 62
    0
 10
39809.5
 20
28685.3
 11
39811.5
 21
28885.3
  0
LINE
  8
alt_1OG_Mauern
 39
0.2
 62
    0
 10
34884.6
 20
28896.3
 11
31679.3
 21
28911.6
  0
LINE
  8
alt_EG_Einbauten
 39
0.1
 62
    0
 10
22746.9
 20
42459.5
 11
22731.6
 21
43659.4
  0
LINE
  8
alt_EG_Einbauten
 39
0.1
 62
    0
 10
23631.5
 20
43670.8
 11
22731.6
 21
43659.4
  0
LINE
  8
alt_EG_Einbauten
 39
0.1
 62
    0
 10
23635.3
 20
43370.8
 11
22735.4
 21
43359.4
  0
LINE
  8
alt_EG_Einbauten
 39
0.1
 62
    0
 10
23639.2
 20
43070.9
 11
22739.2
 21
43059.4
  0
LINE
  8
alt_EG_Einbauten
 39
0.1
 62
    0
 10
22743.0
 20
42759.5
 11
23643.0
 21
42770.9
  0
LINE
  8
alt_1OG_Mauern
 39
0.2
 62
    0
 10
31679.3
 20
28911.6
 11
31574.7
 21
26621.5
  0
LINE
  8
alt_EG_Einbauten
 39
0.1
 62
    0
 10
23623.9
 20
44270.8
 11
23323.9
 21
44267.0
  0
LINE
  8
alt_EG_Einbauten
 39
0.1
 62
    0
 10
23627.7
 20
43970.8
 11
23027.8
 21
43963.2
  0
LINE
  8
alt_EG_Einbauten
 39
0.1
 62
    0
 10
23620.1
 20
44570.8
 11
22731.6
 21
43659.4
  0
LINE
  8
alt_EG_Einbauten
 39
0.1
 62
    0
 10
23646.8
 20
42470.9
 11
23642.7
 21
42793.2
  0
LINE
  8
alt_1OG_Mauern
 39
0.2
 62
    0
 10
31574.7
 20
26621.5
 11
31424.8
 21
26628.3
  0
LINE
  8
alt_1OG_Mauern
 39
0.2
 62
    0
 10
31529.2
 20
28912.3
 11
31429.1
 21
28912.8
  0
LINE
  8
alt_1OG_Mauern
 39
0.2
 62
    0
 10
23622.5
 20
29891.6
 11
23422.2
 21
29872.7
  0
LINE
  8
alt_1OG_Mauern
 39
0.2
 62
    0
 10
18624.0
 20
27518.3
 11
18431.9
 21
27494.8
  0
LINE
  8
alt_1OG_Mauern
 39
0.2
 62
    0
 10
18599.0
 20
27773.6
 11
18624.0
 21
27518.3
  0
LINE
  8
alt_1OG_Mauern
 39
0.2
 62
    0
 10
21082.7
 20
29113.1
 11
21080.9
 21
29263.1
  0
LINE
  8
alt_1OG_Mauern
 39
0.2
 62
    0
 10
21382.7
 20
29116.8
 11
21082.7
 21
29113.1
  0
LINE
  8
alt_1OG_Mauern
 39
0.2
 62
    0
 10
21381.5
 20
29215.5
 11
21382.7
 21
29116.8
  0
LINE
  8
alt_1OG_Mauern
 39
0.2
 62
    0
 10
22238.9
 20
29329.1
 11
21381.5
 21
29215.5
  0
LINE
  8
alt_1OG_Mauern
 39
0.2
 62
    0
 10
22250.9
 20
28070.2
 11
22238.9
 21
29329.1
  0
LINE
  8
alt_1OG_Mauern
 39
0.2
 62
    0
 10
31529.2
 20
28912.3
 11
31424.8
 21
26628.3
  0
LINE
  8
alt_1OG_Mauern
 39
0.2
 62
    0
 10
39788.8
 20
31584.6
 11
35202.5
 21
31606.4
  0
LINE
  8
alt_1OG_Mauern
 39
0.2
 62
    0
 10
31436.1
 20
29066.9
 11
31429.1
 21
28912.8
  0
LINE
  8
alt_1OG_Mauern
 39
0.2
 62
    0
 10
23655.5
 20
25120.8
 11
23605.2
 21
25122.1
  0
LINE
  8
alt_1OG_Mauern
 39
0.2
 62
    0
 10
18469.7
 20
27770.5
 11
18599.0
 21
27773.6
  0
LINE
  8
alt_1OG_Mauern
 39
0.2
 62
    0
 10
31540.4
 20
25872.2
 11
31526.6
 21
25570.2
  0
LINE
  8
alt_1OG_Mauern
 39
0.2
 62
    0
 10
32643.4
 20
25755.4
 11
32097.9
 21
25602.6
  0
LINE
  8
alt_EG_Einbauten
 39
0.1
 62
    0
 10
29178.6
 20
47959.4
 11
29176.4
 21
46714.1
  0
LINE
  8
alt_EG_Mauern
 39
0.2
 62
    0
 10
30964.2
 20
46443.6
 11
30958.8
 21
45638.7
  0
LINE
  8
alt_EG_Mauern
 39
0.2
 62
    0
 10
15391.8
 20
41549.7
 11
15015.3
 21
48156.0
  0
LINE
  8
alt_EG_Mauern
  6
LT-7
 39
0.1
 62
    0
 10
23617.6
 20
41488.8
 11
23605.2
 21
41789.5
  0
LINE
  8
alt_EG_Mauern
 39
0.2
 62
    0
 10
15015.3
 20
48156.0
 11
14998.9
 21
48629.6
  0
LINE
  8
alt_EG_Mauern
 39
0.2
 62
    0
 10
14998.9
 20
48629.6
 11
18019.8
 21
48753.9
  0
LINE
  8
alt_EG_Mauern
 39
0.2
 62
    0
 10
18019.8
 20
48753.9
 11
18038.9
 21
48438.9
  0
LINE
  8
alt_1OG_Mauern
 39
0.2
 62
    0
 10
24375.8
 20
31152.6
 11
24175.8
 21
31153.2
  0
LINE
  8
alt_EG_Einbauten
 39
0.1
 62
    0
 10
30228.3
 20
46520.6
 11
30225.9
 21
45179.0
  0
LINE
  8
alt_EG_Mauern
 39
0.2
 62
    0
 10
36440.5
 20
45414.2
 11
36445.8
 21
45564.1
  0
LINE
  8
alt_1OG_Mauern
 39
0.2
 62
    0
 10
18431.9
 20
27494.8
 11
18732.2
 21
25034.1
  0
LINE
  8
alt_EG_Mauern
 39
0.2
 62
    0
 10
36650.8
 20
46603.3
 11
36645.1
 21
45406.9
  0
LINE
  8
alt_EG_Mauern
 39
0.2
 62
    0
 10
33099.3
 20
45682.4
 11
35732.9
 21
45589.3
  0
LINE
  8
alt_EG_Mauern
 39
0.2
 62
    0
 10
39401.1
 20
44529.1
 11
39406.1
 21
45023.5
  0
LINE
  8
alt_EG_Mauern
 39
0.2
 62
    0
 10
31173.6
 20
47860.6
 11
30580.6
 21
47861.6
  0
LINE
  8
alt_EG_Einbauten
 39
0.1
 62
    0
 10
29529.2
 20
47951.2
 11
29527.0
 21
46713.5
  0
LINE
  8
alt_EG_Mauern
  6
LT-7
 39
0.1
 62
    0
 10
40342.7
 20
48629.6
 11
30998.2
 21
48620.3
  0
LINE
  8
alt_EG_Mauern
 39
0.2
 62
    0
 10
32643.4
 20
42422.8
 11
32097.9
 21
42270.0
  0
LINE
  8
alt_EG_Mauern
 39
0.2
 62
    0
 10
32097.9
 20
42270.0
 11
29701.0
 21
42134.1
  0
LINE
  8
alt_EG_Mauern
  6
LT-7
 39
0.1
 62
    0
 10
30224.2
 20
48335.0
 11
23628.1
 21
48489.5
  0
LINE
  8
alt_EG_Mauern
 39
0.2
 62
    0
 10
29701.0
 20
42134.1
 11
23605.2
 21
41789.5
  0
LINE
  8
alt_EG_Mauern
 39
0.2
 62
    0
 10
23620.1
 20
45705.2
 11
23617.5
 21
44770.8
  0
LINE
  8
alt_EG_Einbauten
 39
0.1
 62
    0
 10
29879.7
 20
47942.9
 11
29877.5
 21
46712.9
  0
LINE
  8
alt_EG_Mauern
 39
0.2
 62
    0
 10
36501.7
 20
46799.7
 11
36495.8
 21
45562.3
  0
LINE
  8
alt_1OG_Mauern
 39
0.2
 62
    0
 10
34750.4
 20
26092.0
 11
33183.4
 21
26058.8
  0
LINE
  8
alt_EG_Mauern
 39
0.2
 62
    0
 10
35732.9
 20
45589.3
 11
35727.6
 21
45439.4
  0
LINE
  8
alt_EG_Mauern
 39
0.2
 62
    0
 10
39406.1
 20
45023.5
 11
40106.1
 21
45016.4
  0
LINE
  8
alt_EG_Mauern
 39
0.2
 62
    0
 10
23628.1
 20
48489.5
 11
23620.1
 21
45705.2
  0
LINE
  8
alt_EG_Mauern
 39
0.2
 62
    0
 10
40307.1
 20
45114.3
 11
40107.1
 21
45116.4
  0
LINE
  8
alt_EG_Mauern
 39
0.2
 62
    0
 10
40299.2
 20
44330.6
 11
40099.2
 21
44332.6
  0
LINE
  8
alt_EG_Mauern
 39
0.2
 62
    0
 10
37355.0
 20
46971.1
 11
37205.0
 21
46967.3
  0
LINE
  8
alt_EG_Mauern
 39
0.2
 62
    0
 10
33095.2
 20
44926.2
 11
33295.2
 21
44925.1
  0
LINE
  8
alt_EG_Mauern
 39
0.2
 62
    0
 10
37199.1
 20
48114.3
 11
37198.4
 21
48264.3
  0
LINE
  8
alt_EG_Mauern
 39
0.2
 62
    0
 10
40314.5
 20
45847.6
 11
40114.5
 21
45849.6
  0
LINE
  8
alt_EG_Mauern
 39
0.2
 62
    0
 10
40312.0
 20
45597.6
 11
40112.0
 21
45599.7
  0
LINE
  8
alt_EG_Mauern
 39
0.2
 62
    0
 10
40121.4
 20
46532.9
 11
39421.5
 21
46540.0
  0
LINE
  8
alt_EG_Mauern
 39
0.2
 62
    0
 10
40320.4
 20
46430.9
 11
40120.4
 21
46432.9
  0
LINE
  8
alt_EG_Mauern
 39
0.2
 62
    0
 10
40326.1
 20
46988.2
 11
40126.1
 21
46990.2
  0
LINE
  8
alt_EG_Mauern
 39
0.2
 62
    0
 10
18624.0
 20
44185.7
 11
18431.9
 21
44162.2
  0
LINE
  8
alt_EG_Mauern
 39
0.2
 62
    0
 10
18599.0
 20
44441.0
 11
18624.0
 21
44185.7
  0
LINE
  8
alt_EG_Mauern
 39
0.2
 62
    0
 10
30958.8
 20
45638.7
 11
30376.6
 21
45591.8
  0
LINE
  8
alt_EG_Mauern
 39
0.2
 62
    0
 10
35677.7
 20
45441.1
 11
35727.6
 21
45439.4
  0
LINE
  8
alt_EG_Mauern
 39
0.2
 62
    0
 10
39421.5
 20
46540.0
 11
39422.8
 21
46672.6
  0
LINE
  8
alt_EG_Mauern
 39
0.2
 62
    0
 10
40100.2
 20
44432.6
 11
39401.1
 21
44529.1
  0
LINE
  8
alt_EG_Mauern
 39
0.2
 62
    0
 10
35227.7
 20
45457.1
 11
35226.8
 21
45006.8
  0
LINE
  8
alt_EG_Mauern
 39
0.2
 62
    0
 10
35226.8
 20
45006.8
 11
35676.7
 21
44990.9
  0
LINE
  8
alt_EG_Mauern
 39
0.2
 62
    0
 10
39422.8
 20
46672.6
 11
36650.8
 21
46603.3
  0
LINE
  8
alt_EG_Mauern
 39
0.2
 62
    0
 10
21082.7
 20
45780.5
 11
21080.9
 21
45930.5
  0
LINE
  8
alt_EG_Mauern
 39
0.2
 62
    0
 10
36440.5
 20
45414.2
 11
36645.1
 21
45406.9
  0
LINE
  8
alt_EG_Mauern
 39
0.2
 62
    0
 10
36445.8
 20
45564.1
 11
36495.8
 21
45562.3
  0
LINE
  8
alt_EG_Mauern
 39
0.2
 62
    0
 10
37349.1
 20
48113.6
 11
37199.1
 21
48114.3
  0
LINE
  8
alt_EG_Mauern
 39
0.2
 62
    0
 10
31176.5
 20
48293.0
 11
31173.6
 21
47860.6
  0
LINE
  8
alt_1OG_Mauern
 39
0.2
 62
    0
 10
40127.2
 20
30432.2
 11
39777.7
 21
30485.7
  0
LINE
  8
alt_EG_Mauern
 39
0.2
 62
    0
 10
35677.7
 20
45441.1
 11
35676.7
 21
44990.9
  0
LINE
  8
alt_EG_Mauern
 39
0.2
 62
    0
 10
21382.7
 20
45784.1
 11
21082.7
 21
45780.5
  0
LINE
  8
alt_EG_Mauern
 39
0.2
 62
    0
 10
21381.5
 20
45882.8
 11
21382.7
 21
45784.1
  0
LINE
  8
alt_EG_Mauern
 39
0.2
 62
    0
 10
22238.9
 20
45996.4
 11
21381.5
 21
45882.8
  0
LINE
  8
alt_EG_Mauern
 39
0.2
 62
    0
 10
33298.5
 20
45525.3
 11
35227.7
 21
45457.1
  0
LINE
  8
alt_EG_Mauern
 39
0.2
 62
    0
 10
30580.7
 20
47926.5
 11
24376.9
 21
48071.8
  0
LINE
  8
alt_EG_Mauern
 39
0.2
 62
    0
 10
31142.7
 20
43217.1
 11
23642.7
 21
42793.2
  0
LINE
  8
alt_EG_Mauern
 39
0.2
 62
    0
 10
33090.1
 20
43975.4
 11
33290.1
 21
43974.3
  0
LINE
  8
alt_EG_Mauern
 39
0.2
 62
    0
 10
22250.9
 20
44737.6
 11
22238.9
 21
45996.4
  0
LINE
  8
alt_1OG_Mauern
 39
0.2
 62
    0
 10
40309.0
 20
28630.3
 11
40109.0
 21
28632.3
  0
LINE
  8
alt_1OG_Mauern
 39
0.2
 62
    0
 10
40302.1
 20
27954.6
 11
40102.1
 21
27956.6
  0
LINE
  8
alt_1OG_Mauern
 39
0.2
 62
    0
 10
35202.5
 20
31606.4
 11
35141.3
 21
30266.3
  0
LINE
  8
alt_1OG_Mauern
 39
0.2
 62
    0
 10
23518.6
 20
31553.0
 11
23524.4
 21
31403.2
  0
LINE
  8
alt_1OG_Mauern
 39
0.2
 62
    0
 10
40084.4
 20
26205.3
 11
36103.7
 21
26120.8
  0
LINE
  8
alt_1OG_Mauern
 39
0.2
 62
    0
 10
40312.0
 20
28930.3
 11
40112.0
 21
28932.3
  0
LINE
  8
alt_1OG_Mauern
 39
0.2
 62
    0
 10
32097.9
 20
25602.6
 11
31526.6
 21
25570.2
  0
LINE
  8
alt_1OG_Mauern
 39
0.2
 62
    0
 10
23821.5
 20
29581.9
 11
24371.8
 21
29682.7
  0
LINE
  8
alt_EG_Mauern
  6
LT-7
 39
0.1
 62
    0
 10
30998.2
 20
48620.3
 11
30224.2
 21
48335.0
  0
LINE
  8
alt_EG_Mauern
  6
LT-7
 39
0.1
 62
    0
 10
40280.4
 20
42476.9
 11
33050.5
 21
42278.8
  0
LINE
  8
alt_1OG_Mauern
 39
0.2
 62
    0
 10
23643.0
 20
26099.4
 11
23812.2
 21
26099.0
  0
LINE
  8
alt_EG_Einbauten
 39
0.1
 62
    0
 10
29728.3
 20
46521.5
 11
30228.3
 21
46520.6
  0
LINE
  8
alt_EG_Mauern
 39
0.2
 62
    0
 10
31163.5
 20
46342.2
 11
30963.5
 21
46343.6
  0
LINE
  8
alt_EG_Mauern
 39
0.2
 62
    0
 10
31159.5
 20
45737.4
 11
30959.5
 21
45738.7
  0
LINE
  8
alt_EG_Mauern
 39
0.2
 62
    0
 10
23628.1
 20
48489.5
 11
23622.1
 21
48653.0
  0
LINE
  8
alt_1OG_Mauern
 39
0.2
 62
    0
 10
29701.0
 20
25466.7
 11
23810.2
 21
25377.5
  0
LINE
  8
alt_1OG_Mauern
 39
0.2
 62
    0
 10
18038.9
 20
31771.5
 11
19083.7
 21
31810.8
  0
LINE
  8
alt_1OG_Mauern
 39
0.2
 62
    0
 10
23971.6
 20
29609.4
 11
23967.6
 21
28123.6
  0
LINE
  8
alt_EG_Mauern
 39
0.2
 62
    0
 10
30579.0
 20
46911.6
 11
30578.8
 21
46811.6
  0
LINE
  8
alt_EG_Mauern
 39
0.2
 62
    0
 10
30964.2
 20
46443.6
 11
30378.2
 21
46498.7
  0
LINE
  8
alt_EG_Mauern
 39
0.2
 62
    0
 10
30580.7
 20
47926.5
 11
30580.6
 21
47861.6
  0
LINE
  8
alt_1OG_Mauern
 39
0.2
 62
    0
 10
40111.5
 20
28882.3
 11
40127.2
 21
30432.2
  0
LINE
  8
alt_1OG_Mauern
 39
0.2
 62
    0
 10
19083.7
 20
31810.8
 11
23622.1
 21
31985.6
  0
LINE
  8
alt_1OG_Mauern
 39
0.2
 62
    0
 10
30378.0
 20
29693.9
 11
30373.8
 21
27307.0
  0
LINE
  8
alt_EG_Einbauten
 39
0.1
 62
    0
 10
30580.6
 20
47861.6
 11
30579.0
 21
46911.6
  0
LINE
  8
alt_EG_Einbauten
 39
0.1
 62
    0
 10
34007.3
 20
47584.2
 11
34010.6
 21
48279.5
  0
LINE
  8
alt_EG_Einbauten
 39
0.1
 62
    0
 10
33760.5
 20
47831.9
 11
33762.7
 21
48280.6
  0
LINE
  8
alt_EG_Einbauten
 39
0.1
 62
    0
 10
33311.3
 20
48282.8
 11
34254.0
 21
47336.5
  0
LINE
  8
alt_EG_Mauern
 39
0.2
 62
    0
 10
34688.2
 20
48276.2
 11
31176.5
 21
48293.0
  0
LINE
  8
alt_EG_Einbauten
 39
0.1
 62
    0
 10
35595.8
 20
47764.6
 11
35395.8
 21
47765.5
  0
LINE
  8
alt_EG_Einbauten
 39
0.1
 62
    0
 10
35596.2
 20
47844.6
 11
35396.2
 21
47845.5
  0
LINE
  8
alt_EG_Einbauten
 39
0.1
 62
    0
 10
35493.7
 20
47337.7
 11
35498.2
 21
48272.4
  0
LINE
  8
alt_EG_Einbauten
 39
0.1
 62
    0
 10
29727.5
 20
46329.8
 11
30227.5
 21
46328.9
  0
LINE
  8
alt_EG_Einbauten
 39
0.1
 62
    0
 10
29727.3
 20
46138.1
 11
30227.3
 21
46137.3
  0
LINE
  8
alt_EG_Einbauten
 39
0.1
 62
    0
 10
29727.0
 20
45946.5
 11
30227.0
 21
45945.6
  0
LINE
  8
alt_EG_Einbauten
 39
0.1
 62
    0
 10
29726.7
 20
45754.8
 11
30226.7
 21
45753.9
  0
LINE
  8
alt_EG_Einbauten
 39
0.1
 62
    0
 10
29277.6
 20
47355.8
 11
29077.6
 21
47356.1
  0
LINE
  8
alt_1OG_Mauern
 39
0.2
 62
    0
 10
35015.6
 20
27516.1
 11
34815.8
 21
27525.2
  0
LINE
  8
alt_EG_Einbauten
 39
0.1
 62
    0
 10
34254.1
 20
47343.6
 11
34258.5
 21
48278.3
  0
LINE
  8
alt_EG_Einbauten
 39
0.1
 62
    0
 10
34502.0
 20
47342.5
 11
34506.5
 21
48277.1
  0
LINE
  8
alt_EG_Einbauten
 39
0.1
 62
    0
 10
34749.9
 20
47341.3
 11
34754.4
 21
48275.9
  0
LINE
  8
alt_1OG_Mauern
 39
0.2
 62
    0
 10
34885.3
 20
29046.3
 11
31435.9
 21
29062.8
  0
LINE
  8
alt_EG_Mauern
 39
0.2
 62
    0
 10
18431.9
 20
44162.2
 11
18732.2
 21
41701.5
  0
LINE
  8
alt_EG_Mauern
 39
0.2
 62
    0
 10
18469.7
 20
44437.8
 11
18599.0
 21
44441.0
  0
LINE
  8
alt_1OG_Mauern
 39
0.2
 62
    0
 10
23821.3
 20
29481.9
 11
23621.4
 21
29482.5
  0
LINE
  8
alt_1OG_Mauern
 39
0.2
 62
    0
 10
21080.9
 20
29263.1
 11
18433.9
 21
29230.8
  0
LINE
  8
alt_1OG_Mauern
 39
0.2
 62
    0
 10
18433.9
 20
29230.8
 11
18469.7
 21
27770.5
  0
LINE
  8
alt_EG_Mauern
  6
LT-9
 39
0.2
 62
    0
 10
23818.3
 20
45083.0
 11
24368.0
 21
44981.5
  0
LINE
  8
alt_EG_Mauern
  6
LT-9
 39
0.2
 62
    0
 10
23818.6
 20
45183.0
 11
23618.7
 21
45183.5
  0
LINE
  8
alt_EG_Mauern
  6
LT-9
 39
0.2
 62
    0
 10
23820.7
 20
45983.0
 11
23620.8
 21
45983.5
  0
LINE
  8
alt_EG_Einbauten
 39
0.1
 62
    0
 10
34997.9
 20
47340.1
 11
35002.3
 21
48274.7
  0
LINE
  8
alt_EG_Mauern
 39
0.2
 62
    0
 10
18435.4
 20
41688.0
 11
15391.8
 21
41549.7
  0
LINE
  8
alt_EG_Mauern
 39
0.2
 62
    0
 10
21479.0
 20
41826.3
 11
18435.4
 21
41688.0
  0
LINE
  8
alt_1OG_Mauern
 39
0.2
 62
    0
 10
39777.7
 20
30485.7
 11
39788.8
 21
31584.6
  0
LINE
  8
alt_1OG_Mauern
  6
LT-7
 39
0.1
 62
    0
 10
40280.4
 20
25809.5
 11
35953.3
 21
25691.0
  0
LINE
  8
alt_EG_Einbauten
 39
0.1
 62
    0
 10
35245.8
 20
47338.9
 11
35250.3
 21
48273.6
  0
LINE
  8
alt_EG_Einbauten
 39
0.1
 62
    0
 10
29277.4
 20
47275.8
 11
29077.4
 21
47276.1
  0
LINE
  8
alt_EG_Mauern
  6
LT-9
 39
0.2
 62
    0
 10
23821.2
 20
46083.0
 11
24371.5
 21
46181.5
  0
LINE
  8
alt_EG_Einbauten
 39
0.1
 62
    0
 10
33513.8
 20
48079.6
 11
33514.7
 21
48281.8
  0
LINE
  8
alt_EG_Mauern
 39
0.2
 62
    0
 10
40106.1
 20
45016.4
 11
40121.4
 21
46532.9
  0
LINE
  8
alt_EG_Mauern
 39
0.2
 62
    0
 10
40337.8
 20
48149.3
 11
40137.8
 21
48150.3
  0
LINE
  8
alt_EG_Mauern
 39
0.2
 62
    0
 10
40138.8
 20
48250.3
 11
37348.4
 21
48263.6
  0
LINE
  8
alt_EG_Mauern
 39
0.2
 62
    0
 10
37198.4
 20
48264.3
 11
34688.2
 21
48276.2
  0
LINE
  8
alt_EG_Mauern
 39
0.2
 62
    0
 10
37205.8
 20
46817.3
 11
37205.0
 21
46967.3
  0
LINE
  8
alt_EG_Mauern
 39
0.2
 62
    0
 10
37355.8
 20
46821.0
 11
37355.0
 21
46971.1
  0
LINE
  8
alt_1OG_Mauern
 39
0.2
 62
    0
 10
40292.2
 20
26978.9
 11
40092.2
 21
26980.9
  0
LINE
  8
alt_EG_Mauern
 39
0.2
 62
    0
 10
37205.8
 20
46817.3
 11
36501.7
 21
46799.7
  0
LINE
  8
alt_EG_Mauern
 39
0.2
 62
    0
 10
40125.1
 20
46890.2
 11
37355.8
 21
46821.0
  0
LINE
  8
alt_EG_Einbauten
 39
0.1
 62
    0
 10
30230.2
 20
47934.7
 11
30228.1
 21
46712.3
  0
LINE
  8
alt_EG_Mauern
 39
0.2
 62
    0
 10
40285.4
 20
42970.6
 11
40085.4
 21
42972.6
  0
LINE
  8
alt_EG_Mauern
  6
LT-7
 39
0.1
 62
    0
 10
30792.2
 20
41784.3
 11
23617.6
 21
41488.8
  0
LINE
  8
alt_EG_Mauern
  6
LT-7
 39
0.1
 62
    0
 10
33050.5
 20
42278.8
 11
30792.2
 21
41784.3
  0
LINE
  8
alt_1OG_Mauern
 39
0.2
 62
    0
 10
24374.2
 20
30552.6
 11
24174.2
 21
30553.2
  0
LINE
  8
alt_EG_Mauern
  6
LT-9
 39
0.2
 62
    0
 10
23821.2
 20
46083.0
 11
23818.3
 21
45083.0
  0
LINE
  8
alt_EG_Mauern
 39
0.2
 62
    0
 10
24376.9
 20
48071.8
 11
24363.3
 21
43384.9
  0
LINE
  8
alt_1OG_Mauern
 39
0.2
 62
    0
 10
40293.8
 20
27128.9
 11
40093.8
 21
27130.9
  0
LINE
  8
alt_EG_Mauern
 39
0.2
 62
    0
 10
21572.9
 20
41982.2
 11
21479.0
 21
41826.3
  0
LINE
  8
alt_EG_Mauern
 39
0.2
 62
    0
 10
33083.1
 20
42669.8
 11
32643.4
 21
42422.8
  0
LINE
  8
alt_EG_Mauern
 39
0.2
 62
    0
 10
37349.1
 20
48113.6
 11
37348.4
 21
48263.6
  0
LINE
  8
alt_EG_Mauern
 39
0.2
 62
    0
 10
31167.3
 20
46910.6
 11
31142.7
 21
43217.1
  0
LINE
  8
alt_EG_Mauern
 39
0.2
 62
    0
 10
23617.5
 20
44770.8
 11
23642.7
 21
42793.2
  0
LINE
  8
alt_EG_Einbauten
 39
0.1
 62
    0
 10
29938.0
 20
46621.1
 11
29937.6
 21
46421.1
  0
LINE
  8
alt_1OG_Mauern
 39
0.2
 62
    0
 10
34781.6
 20
26776.0
 11
34750.4
 21
26092.0
  0
LINE
  8
alt_EG_Einbauten
 39
0.1
 62
    0
 10
30018.0
 20
46621.0
 11
30017.6
 21
46421.0
  0
LINE
  8
alt_EG_Mauern
 39
0.2
 62
    0
 10
30378.8
 20
46812.0
 11
30373.4
 21
43724.5
  0
LINE
  8
alt_EG_Mauern
 39
0.2
 62
    0
 10
40084.4
 20
42872.6
 11
33283.4
 21
42728.3
  0
LINE
  8
alt_EG_Einbauten
 39
0.1
 62
    0
 10
29176.4
 20
46714.1
 11
30378.6
 21
46712.0
  0
LINE
  8
alt_1OG_Mauern
 39
0.2
 62
    0
 10
40300.6
 20
27804.6
 11
40100.6
 21
27806.6
  0
LINE
  8
alt_EG_Mauern
 39
0.2
 62
    0
 10
23622.1
 20
48653.0
 11
19083.7
 21
48478.2
  0
LINE
  8
alt_EG_Mauern
 39
0.2
 62
    0
 10
31167.3
 20
46910.6
 11
30579.0
 21
46911.6
  0
LINE
  8
alt_1OG_Mauern
 39
0.2
 62
    0
 10
34878.5
 20
28896.4
 11
34815.8
 21
27525.2
  0
LINE
  8
alt_EG_Mauern
 39
0.2
 62
    0
 10
30378.8
 20
46812.0
 11
30578.8
 21
46811.6
  0
LINE
  8
alt_EG_Mauern
 39
0.2
 62
    0
 10
19083.7
 20
48478.2
 11
18038.9
 21
48438.9
  0
LINE
  8
alt_EG_Einbauten
 39
0.1
 62
    0
 10
34254.0
 20
47336.5
 11
35493.7
 21
47337.7
  0
LINE
  8
alt_EG_Mauern
 39
0.2
 62
    0
 10
30373.4
 20
43724.5
 11
24363.3
 21
43384.9
  0
LINE
  8
alt_EG_Mauern
 39
0.2
 62
    0
 10
23617.5
 20
44770.8
 11
22250.9
 21
44737.6
  0
ENDSEC
  0
EOF
